<svg width="9" height="8" viewBox="0 0 9 8" fill="none" xmlns="http://www.w3.org/2000/svg">
<path d="M4.52795 7.9991C4.71165 7.99244 4.88686 7.91333 5.02004 7.77656L8.76929 3.89392C8.91292 3.74507 8.99587 3.54081 8.99985 3.32608C9.00383 3.11122 8.92851 2.90358 8.79052 2.74865C8.65254 2.59382 8.46308 2.50434 8.26402 2.50016C8.06495 2.49587 7.87236 2.57724 7.72885 2.72608L4.49994 6.06793L1.27104 2.72637C1.07761 2.52584 0.79976 2.45181 0.542106 2.53227C0.28445 2.61273 0.0862246 2.83526 0.0218716 3.11626C-0.0423584 3.39713 0.0371447 3.69369 0.23057 3.89412L3.97982 7.77676V7.77688C4.12711 7.92809 4.32504 8.00844 4.5282 7.9993L4.52795 7.9991Z" fill="black"/>
</svg>
