<svg width="170" height="37" viewBox="0 0 170 37" fill="none" xmlns="http://www.w3.org/2000/svg">
<path fill-rule="evenodd" clip-rule="evenodd" d="M150.452 11.9674H148.346V25.4797H150.985V17.7163C151.332 16.4978 151.866 15.5442 152.585 14.8818C153.279 14.2194 154.079 13.8745 154.987 13.8745C156.052 13.8745 156.852 14.1932 157.332 14.8293C157.866 15.438 158.106 16.339 158.106 17.5313V25.4797H160.719V17.3988C160.719 17.2126 160.719 17.0014 160.693 16.8164L160.612 16.259C161.493 14.6694 162.72 13.8745 164.32 13.8745C165.306 13.8745 166.079 14.1932 166.586 14.8293C167.093 15.438 167.359 16.339 167.359 17.5313V25.4797H170V17.3451C170 15.5442 169.546 14.1395 168.641 13.1334C167.76 12.1524 166.427 11.6487 164.64 11.6487C163.627 11.6487 162.692 11.8612 161.841 12.2861C161.002 12.6746 160.29 13.2895 159.786 14.0607C159.431 13.2901 158.831 12.6569 158.079 12.2586C157.251 11.8489 156.337 11.64 155.413 11.6487C153.225 11.6487 151.652 12.6298 150.718 14.5906L150.452 11.9661V11.9674ZM137.732 13.8483C138.408 13.8436 139.078 13.9696 139.706 14.2194C140.292 14.4569 140.799 14.8018 141.225 15.253C141.625 15.6767 141.946 16.1803 142.186 16.7902C142.426 17.3726 142.533 18.0087 142.533 18.7236C142.533 19.4384 142.426 20.1008 142.186 20.7107C141.989 21.2898 141.66 21.8158 141.225 22.2479C140.825 22.6715 140.317 22.989 139.732 23.2539C139.145 23.4664 138.478 23.5989 137.732 23.5989C137.059 23.5988 136.391 23.4821 135.758 23.2539C135.171 22.989 134.665 22.6715 134.239 22.2479C133.821 21.8021 133.495 21.2801 133.278 20.7107C133.037 20.0759 132.92 19.4017 132.931 18.7236C132.931 18.0087 133.038 17.3726 133.278 16.7627C133.491 16.1541 133.812 15.6504 134.239 15.2005C134.638 14.7756 135.146 14.4582 135.731 14.1932C136.374 13.9671 137.05 13.8505 137.732 13.8483V13.8483ZM137.732 11.6487C136.639 11.6487 135.651 11.8349 134.745 12.1798C133.875 12.5052 133.084 13.0109 132.424 13.6633C131.759 14.3 131.232 15.0667 130.879 15.9154C130.523 16.8091 130.342 17.7622 130.345 18.7236C130.345 19.7571 130.532 20.7107 130.879 21.5855C131.226 22.4603 131.731 23.2014 132.372 23.8376C133.038 24.4462 133.812 24.9498 134.717 25.2673C135.625 25.6385 136.639 25.7972 137.732 25.7972C138.798 25.7972 139.785 25.6122 140.692 25.2673C141.567 24.9359 142.366 24.4312 143.039 23.7838C143.705 23.1187 144.231 22.329 144.589 21.4602C144.946 20.5914 145.126 19.6609 145.12 18.7223C145.12 17.69 144.931 16.7352 144.584 15.8616C144.25 15.0097 143.731 14.2413 143.065 13.6108C142.389 12.9795 141.591 12.4926 140.718 12.1798C139.812 11.8087 138.825 11.6487 137.732 11.6487V11.6487ZM126.478 15.3855L127.917 13.6896C127.245 13.0101 126.424 12.4936 125.519 12.1798C124.584 11.8087 123.517 11.6487 122.317 11.6487C121.305 11.6487 120.345 11.8087 119.49 12.1524C118.636 12.4695 117.856 12.9564 117.197 13.5833C116.531 14.1932 116.024 14.9343 115.651 15.8354C115.25 16.684 115.064 17.6638 115.064 18.7498C115.064 19.7309 115.223 20.6582 115.544 21.5055C115.838 22.3803 116.29 23.1215 116.931 23.7576C117.518 24.3937 118.29 24.8974 119.17 25.2673C120.077 25.6122 121.118 25.7972 122.263 25.7972C123.491 25.7972 124.612 25.6122 125.572 25.2148C126.584 24.8436 127.437 24.235 128.185 23.4126L126.612 21.7967C126.104 22.3529 125.465 22.7765 124.744 23.0952C124.025 23.3602 123.223 23.5201 122.371 23.5201C120.905 23.5201 119.73 23.069 118.904 22.1954C118.078 21.3206 117.651 20.127 117.651 18.6173C117.651 17.8762 117.784 17.2139 118.024 16.6302C118.263 16.0478 118.611 15.5429 119.037 15.1468C119.464 14.7493 119.97 14.4319 120.557 14.2194C121.118 14.007 121.731 13.9008 122.371 13.9008C123.251 13.9008 124.025 14.0345 124.719 14.2994C125.384 14.5644 125.971 14.9343 126.478 15.3855V15.3855ZM111.063 22.0617C110.557 22.0617 110.131 22.2204 109.784 22.5653C109.41 22.8827 109.224 23.3064 109.224 23.8638C109.224 24.3937 109.41 24.8174 109.784 25.1611C110.131 25.4797 110.557 25.6385 111.063 25.6385C111.571 25.6385 111.997 25.4797 112.345 25.1623C112.717 24.8174 112.904 24.3937 112.904 23.8626C112.904 23.3064 112.718 22.8827 112.344 22.5653C111.997 22.2204 111.571 22.0617 111.062 22.0617H111.063Z" fill="#85E1B9"/>
<path fill-rule="evenodd" clip-rule="evenodd" d="M95.8338 11.9672H92.5545L97.4345 18.3534L92.1009 25.4795H95.3551L99.1672 19.7557H99.4348L103.488 25.4795H106.768L101.381 18.4584L106.208 11.9672H103.087L99.6208 17.1337H99.3544L95.8338 11.9672ZM85.7809 19.5982V20.1806C85.7809 20.6842 85.6741 21.1604 85.4341 21.5591C85.1941 21.9827 84.9001 22.3539 84.4729 22.6451C84.0998 22.9363 83.6198 23.175 83.0871 23.36C82.5807 23.5187 82.0191 23.5974 81.4072 23.5974C80.4208 23.5974 79.6481 23.4125 79.1405 23.0425C78.6065 22.6451 78.3402 22.0877 78.3402 21.3466C78.3402 20.658 78.6065 20.1006 79.1405 19.6507C79.6996 19.2258 80.6068 19.0146 81.8871 19.0146C83.3534 19.0146 84.6338 19.1995 85.7809 19.5982ZM76.5799 13.212L77.6202 15.0666C79.0865 14.2992 80.6068 13.9006 82.2339 13.9006C83.4338 13.9006 84.341 14.1393 84.9001 14.6429C85.4605 15.1466 85.7545 15.8614 85.7545 16.8425V17.5848C85.1434 17.385 84.5197 17.2255 83.8874 17.1074C83.1931 16.9752 82.4872 16.9128 81.7803 16.9212C79.8869 16.9212 78.4206 17.3187 77.3262 18.0873C76.2331 18.8558 75.7003 19.9419 75.7003 21.2929C75.7003 22.7501 76.1527 23.8899 77.1138 24.6322C78.0198 25.4271 79.3001 25.797 80.9272 25.797C83.3006 25.797 85.0609 25.0021 86.2068 23.4399C86.34 24.3148 86.6604 24.8972 87.0864 25.2146C87.5676 25.5595 88.1267 25.7183 88.7951 25.7183C89.3266 25.7183 89.7802 25.6383 90.1534 25.4533L89.9146 23.4912C89.7373 23.565 89.5465 23.6016 89.3543 23.5987C89.2078 23.6006 89.0627 23.5707 88.929 23.5111C88.7953 23.4516 88.6763 23.3637 88.5803 23.2537C88.3943 22.9888 88.2875 22.5914 88.2875 22.0352V17.0812C88.2875 15.3853 87.8076 14.0605 86.82 13.0795C85.8337 12.1259 84.287 11.6485 82.1799 11.6485C81.1672 11.6485 80.2072 11.7547 79.3001 12.0197C78.3929 12.2321 77.487 12.6571 76.5799 13.212ZM65.8334 13.8493C66.5533 13.8493 67.2192 13.9806 67.806 14.2193C68.3928 14.4567 68.8991 14.8016 69.3263 15.2528C69.7271 15.6765 70.0463 16.1801 70.2863 16.79C70.5262 17.3724 70.633 18.0085 70.633 18.7234C70.633 19.4382 70.5262 20.1006 70.2863 20.7105C70.0727 21.3204 69.7523 21.8228 69.3263 22.2477C68.9268 22.6714 68.4192 22.9888 67.8324 23.2537C67.1914 23.484 66.5149 23.6008 65.8334 23.5987C65.1602 23.5986 64.4923 23.4819 63.8595 23.2537C63.2727 22.9888 62.7664 22.6714 62.3392 22.2477C61.9226 21.8016 61.5966 21.2796 61.3792 20.7105C61.1391 20.0757 61.0214 19.4015 61.0324 18.7234C61.0324 18.0085 61.1392 17.3724 61.3792 16.7625C61.5928 16.1539 61.9132 15.6502 62.3392 15.2003C62.7387 14.7754 63.2463 14.458 63.8331 14.193C64.4756 13.9669 65.1518 13.8502 65.8334 13.8481V13.8493ZM65.8334 11.6498C64.7402 11.6498 63.7527 11.8347 62.8455 12.1797C61.9754 12.5051 61.1848 13.0107 60.5261 13.6631C59.8602 14.2999 59.3336 15.0666 58.9794 15.9152C58.6234 16.8089 58.4422 17.762 58.4454 18.7234C58.4454 19.7569 58.6326 20.7105 58.9794 21.5853C59.3262 22.4601 59.8325 23.2012 60.4721 23.8374C61.1392 24.446 61.9132 24.9497 62.8191 25.2671C63.7263 25.6383 64.7402 25.797 65.8334 25.797C66.844 25.8026 67.8471 25.6229 68.7923 25.2671C69.6676 24.9357 70.466 24.431 71.1394 23.7836C71.7888 23.1386 72.3052 22.3736 72.6597 21.5316C73.0329 20.6567 73.2201 19.7307 73.2201 18.7234C73.2201 17.6898 73.0329 16.7363 72.6861 15.8614C72.3511 15.0095 71.8321 14.2411 71.1658 13.6106C70.4902 12.9795 69.6919 12.4925 68.82 12.1797C67.9128 11.8085 66.9265 11.6485 65.8334 11.6485V11.6498ZM54.0729 15.0666L55.166 13.0795C54.3921 12.5771 53.5125 12.2321 52.579 11.9922C51.6107 11.7544 50.6161 11.639 49.6188 11.6485C47.6713 11.6485 46.205 12.0197 45.2187 12.7608C44.2323 13.5306 43.7247 14.5105 43.7247 15.7027C43.7247 16.815 44.0715 17.6898 44.7387 18.326C45.4046 18.9883 46.3922 19.3857 47.6725 19.5182L50.8727 19.8894C51.7522 19.9681 52.3654 20.1806 52.7122 20.4455C53.059 20.7642 53.2185 21.1604 53.2185 21.6903C53.2185 22.3002 52.8981 22.7776 52.2862 23.1213C51.6454 23.4662 50.6855 23.6249 49.4052 23.6249C48.5307 23.633 47.6596 23.5169 46.8181 23.28C45.9609 23.0254 45.1444 22.6509 44.3932 22.1677L43.2724 24.1548C44.2047 24.7647 45.1646 25.2146 46.0994 25.4271C47.0594 25.692 48.1249 25.797 49.2984 25.797C51.3527 25.797 52.9258 25.4271 54.0453 24.6847C55.1924 23.9424 55.7528 22.9101 55.7528 21.5853C55.7528 20.3393 55.3256 19.4382 54.4725 18.8021C53.6457 18.2197 52.4722 17.7961 51.0047 17.6098L48.2317 17.2924C47.5117 17.2124 47.0053 17.0275 46.739 16.7888C46.4186 16.5238 46.2854 16.1539 46.2854 15.7027C46.2854 15.1466 46.5794 14.6967 47.1121 14.3517C47.6989 14.0343 48.4993 13.8743 49.566 13.8743C51.1919 13.8743 52.6858 14.2717 54.0729 15.0666ZM14.1678 21.8515L11.1247 24.8759C10.5199 25.4784 9.80146 25.9561 9.01058 26.2817C8.21969 26.6073 7.37194 26.7742 6.516 26.773C5.66035 26.7742 4.81289 26.6074 4.02224 26.282C3.23158 25.9567 2.51329 25.4793 1.90856 24.8772C1.30276 24.2769 0.822255 23.5635 0.494709 22.7778C0.167163 21.9922 -0.000963249 21.1498 4.15116e-06 20.2993C4.15116e-06 18.6434 0.637028 16.9862 1.90982 15.7227L12.3887 5.31226C12.5658 5.68093 12.8096 6.02837 13.1174 6.33581L13.1237 6.3408C13.4328 6.64699 13.7821 6.88945 14.154 7.06566L3.67514 17.4774C3.30178 17.8474 3.00567 18.2872 2.80384 18.7715C2.60201 19.2558 2.49844 19.7751 2.4991 20.2993C2.4991 21.3216 2.89111 22.3427 3.67514 23.1225C4.04806 23.4937 4.49096 23.7879 4.97846 23.9885C5.46596 24.189 5.98846 24.2918 6.516 24.291C7.04353 24.2918 7.56603 24.189 8.05353 23.9885C8.54103 23.7879 8.98393 23.4937 9.35685 23.1225L12.4012 20.0981C12.7698 20.8676 13.3937 21.4873 14.1678 21.8528V21.8515ZM17.3818 15.1478L20.4262 12.1234C21.031 11.5213 21.7493 11.0439 22.5399 10.7185C23.3306 10.3932 24.178 10.2263 25.0337 10.2275C26.701 10.2275 28.3696 10.8599 29.6411 12.1234C30.2472 12.7235 30.728 13.4369 31.0557 14.2226C31.3835 15.0083 31.5518 15.8507 31.5509 16.7013C31.5517 17.5519 31.3834 18.3943 31.0556 19.1799C30.7279 19.9656 30.2471 20.679 29.6411 21.2791L19.1648 31.6883C18.9813 31.3065 18.7335 30.9586 18.4322 30.6598H18.4272C18.1276 30.3618 17.7792 30.1167 17.3969 29.9349L27.8758 19.5245C28.2494 19.1541 28.5456 18.7138 28.7475 18.2291C28.9493 17.7444 29.0527 17.2247 29.0518 16.7C29.0518 15.679 28.6586 14.6579 27.8745 13.8781C27.5018 13.507 27.0591 13.2128 26.5718 13.0123C26.0845 12.8118 25.5623 12.7089 25.0349 12.7096C24.5072 12.7086 23.9844 12.8114 23.4967 13.0119C23.009 13.2124 22.5659 13.5068 22.1928 13.8781L19.1497 16.9025C18.7806 16.1329 18.1563 15.5133 17.3818 15.1478Z" fill="white"/>
<path fill-rule="evenodd" clip-rule="evenodd" d="M18.4322 35.9101H18.4272C18.0814 36.2555 17.6704 36.5296 17.2179 36.7167C16.7653 36.9037 16.28 37 15.7899 37C15.2998 37 14.8145 36.9037 14.362 36.7167C13.9094 36.5296 13.4984 36.2555 13.1526 35.9101H13.1476C12.8005 35.5658 12.5252 35.1568 12.3376 34.7064C12.15 34.256 12.0538 33.7731 12.0545 33.2856C12.0545 32.3358 12.4188 31.386 13.1476 30.6611H13.1526C13.8813 29.9362 14.8363 29.5738 15.7899 29.5738C16.7423 29.5738 17.6972 29.9362 18.4272 30.6611H18.4322C19.161 31.386 19.5254 32.3358 19.5254 33.2856C19.5254 34.2354 19.161 35.1852 18.4322 35.9101ZM16.6669 34.1579L16.6644 34.1554C16.7799 34.0416 16.8716 33.9061 16.9341 33.7568C16.9967 33.6075 17.0289 33.4473 17.0289 33.2856C17.0289 33.1238 16.9967 32.9637 16.9341 32.8144C16.8716 32.6651 16.7799 32.5296 16.6644 32.4158L16.6669 32.4133C16.4335 32.1836 16.1182 32.0551 15.7899 32.0558C15.4611 32.0547 15.1453 32.1832 14.9116 32.4133L14.9142 32.4158C14.7987 32.5296 14.707 32.6651 14.6444 32.8144C14.5819 32.9637 14.5497 33.1238 14.5497 33.2856C14.5497 33.4473 14.5819 33.6075 14.6444 33.7568C14.707 33.9061 14.7987 34.0416 14.9142 34.1554L14.9116 34.1579C15.1454 34.3878 15.4612 34.5163 15.7899 34.5154C16.1183 34.5163 16.4336 34.3877 16.6669 34.1579V34.1579ZM13.1187 1.0894H13.1224C13.4683 0.744103 13.8793 0.470123 14.3319 0.283178C14.7845 0.0962327 15.2697 0 15.7598 0C16.2498 0 16.735 0.0962327 17.1876 0.283178C17.6402 0.470123 18.0512 0.744103 18.3971 1.0894H18.4021C19.1308 1.81426 19.4965 2.76407 19.4965 3.71389C19.4965 4.6637 19.1321 5.61352 18.4021 6.33837C17.6733 7.06323 16.7159 7.42566 15.7598 7.42566C14.8074 7.42566 13.8525 7.06323 13.1224 6.33837L13.1187 6.33462C12.7714 5.99129 12.4958 5.58305 12.3078 5.13339C12.1197 4.68373 12.0229 4.20153 12.0229 3.71451C12.0229 3.2275 12.1197 2.74529 12.3078 2.29563C12.4958 1.84597 12.7714 1.43773 13.1187 1.0944V1.0894V1.0894ZM14.8827 2.84156L14.8853 2.84406L14.8827 2.84156C14.768 2.95629 14.6771 3.09237 14.6152 3.24205C14.5533 3.39172 14.5217 3.55205 14.5221 3.71389C14.5221 4.03132 14.6428 4.34626 14.8827 4.58622C15.0563 4.75791 15.2771 4.87468 15.5172 4.9218C15.7574 4.96892 16.0062 4.94429 16.2323 4.85101C16.4584 4.75774 16.6517 4.59998 16.7879 4.39763C16.924 4.19527 16.9969 3.95737 16.9974 3.71389C16.9976 3.55234 16.9658 3.39233 16.9037 3.24305C16.8416 3.09378 16.7505 2.95818 16.6355 2.84406L16.638 2.84156C16.4045 2.61131 16.0886 2.48274 15.7598 2.48413C15.4314 2.48321 15.1161 2.61173 14.8827 2.84156V2.84156ZM13.1325 15.8753C13.8625 15.1504 14.8187 14.788 15.7748 14.788C16.731 14.788 17.6872 15.1504 18.4172 15.8753C19.1459 16.6001 19.5115 17.5499 19.5115 18.4997C19.5115 19.4496 19.1472 20.3994 18.4172 21.1242C17.6872 21.8491 16.731 22.2115 15.7748 22.2115C14.8199 22.2115 13.8625 21.8491 13.1338 21.1242C12.7862 20.7802 12.5105 20.3712 12.3225 19.9208C12.1344 19.4704 12.0378 18.9874 12.0381 18.4997C12.0381 17.5499 12.4025 16.6001 13.1325 15.8753V15.8753ZM14.9003 17.6299C14.785 17.7439 14.6935 17.8794 14.631 18.0287C14.5685 18.1779 14.5364 18.338 14.5364 18.4997C14.5364 18.6614 14.5685 18.8215 14.631 18.9708C14.6935 19.1201 14.785 19.2556 14.9003 19.3696C15.0151 19.4842 15.1515 19.5751 15.3016 19.6372C15.4518 19.6992 15.6128 19.7312 15.7755 19.7312C15.9381 19.7312 16.0991 19.6992 16.2493 19.6372C16.3994 19.5751 16.5358 19.4842 16.6506 19.3696C16.7659 19.2557 16.8574 19.1203 16.9198 18.9711C16.9823 18.822 17.0144 18.662 17.0144 18.5004C17.0144 18.3388 16.9823 18.1788 16.9198 18.0296C16.8574 17.8804 16.7659 17.745 16.6506 17.6312C16.5358 17.5165 16.3993 17.4256 16.249 17.3636C16.0987 17.3016 15.9375 17.2698 15.7748 17.27C15.6124 17.2698 15.4516 17.3015 15.3015 17.3632C15.1514 17.425 15.0151 17.5156 14.9003 17.6299V17.6299Z" fill="#85E1B9"/>
</svg>
