<svg width="20" height="20" viewBox="0 0 20 20" fill="none" xmlns="http://www.w3.org/2000/svg">
<path d="M2 9.4H8.66667C9.06667 9.4 9.33333 9.13333 9.33333 8.73333V6.73333C9.33333 6.53333 9.26667 6.4 9.06667 6.26667C8.93333 6.13333 8.73333 6.06667 8.53333 6.06667C7.93333 6.06667 7.6 5.86667 7.6 5.46667C7.6 5.2 7.6 4.86667 8.33333 4.86667H8.6C8.8 4.86667 9 4.8 9.13333 4.66667C9.26667 4.53333 9.33333 4.33333 9.33333 4.2V2.06667C9.33333 1.66667 9.06667 1.4 8.66667 1.4H6.6C6.4 0.533333 5.6 0 4.66667 0C3.73333 0 2.93333 0.533333 2.73333 1.4H2C1.6 1.4 1.33333 1.66667 1.33333 2.06667V8.73333C1.33333 9.06667 1.6 9.4 2 9.4ZM2.66667 2.73333H3.33333C3.53333 2.73333 3.73333 2.66667 3.8 2.53333C4 2.33333 4 2.13333 4 1.93333V1.86667C4 1.13333 5.33333 1.13333 5.33333 1.86667L6 1.93333H5.33333C5.33333 2.13333 5.33333 2.33333 5.46667 2.46667C5.6 2.6 5.8 2.73333 6 2.73333H8V3.53333C6.93333 3.66667 6.33333 4.4 6.33333 5.46667C6.33333 6.46667 7 7.2 8 7.33333V8.06667H2.66667V2.73333Z" fill="#56CEC7"/>
<path d="M18.6667 3.2V2.06667C18.6667 1.66667 18.4 1.4 18 1.4H11.3333C10.9333 1.4 10.6667 1.66667 10.6667 2.06667V4.06667C9.73333 4.26667 9.33333 4.93333 9.33333 5.53333C9.33333 6.13333 9.73333 6.8 10.6667 7V8.66667C10.6667 9.06667 10.9333 9.33333 11.3333 9.33333H18C18.4 9.33333 18.6667 9.06667 18.6667 8.66667V7.13333C19.4667 6.86667 20 6.06667 20 5.2C20 4.26667 19.4667 3.46667 18.6667 3.2ZM18.1333 5.86667H18.0667C17.8667 5.86667 17.6667 5.93333 17.5333 6.06667C17.4 6.2 17.3333 6.4 17.3333 6.53333V8H12V6.4C12 6.06667 11.7333 5.73333 11.3333 5.73333C10.8 5.73333 10.6667 5.53333 10.6667 5.53333C10.6667 5.46667 10.8667 5.33333 11.3333 5.33333C11.6667 5.33333 12 5 12 4.66667V2.73333H17.3333V3.8C17.3333 4 17.4667 4.13333 17.6 4.26667C17.7333 4.4 17.9333 4.46667 18.1333 4.4C18.4667 4.4 18.6667 4.73333 18.6667 5.13333C18.6667 5.6 18.4 5.86667 18.1333 5.86667Z" fill="#56CEC7"/>
<path d="M18 10.6H11.3333C10.9333 10.6 10.6667 10.8667 10.6667 11.2667V13.2667C10.6667 13.4667 10.7333 13.6 10.9333 13.7333C11.0667 13.8667 11.2667 13.9333 11.4667 13.9333C12.0667 13.9333 12.4 14.1333 12.4 14.5333C12.4 14.8 12.4 15.1333 11.6667 15.1333H11.4C11.2 15.1333 11 15.2 10.8667 15.3333C10.7333 15.4667 10.6667 15.6667 10.6667 15.8V17.9333C10.6667 18.3333 10.9333 18.6 11.3333 18.6H13.4C13.6 19.4 14.4 20 15.3333 20C16.2667 20 17.0667 19.4667 17.2667 18.6H18C18.4 18.6 18.6667 18.3333 18.6667 17.9333V11.2667C18.6667 10.9333 18.4 10.6 18 10.6ZM16.6667 17.2667C16.4667 17.2667 16.2667 17.3333 16.2 17.4667C16 17.6667 16 17.8667 16 18.0667V18.1333C16 18.8667 14.6667 18.8667 14.6667 18.1333V18.0667C14.6667 17.8667 14.6 17.6667 14.5333 17.5333C14.4 17.4 14.2 17.3333 14.0667 17.3333H12.0667V16.5333C13.1333 16.4 13.7333 15.6667 13.7333 14.6C13.7333 13.6 13.0667 12.8667 12.0667 12.7333V12H17.4V17.2667H16.6667Z" fill="#56CEC7"/>
<path d="M9.33333 13V11.3333C9.33333 10.9333 9.06667 10.6667 8.66667 10.6667H2C1.6 10.6667 1.33333 10.9333 1.33333 11.3333V12.8667C0.533333 13.1333 0 13.9333 0 14.8C0 15.7333 0.533333 16.5333 1.33333 16.7333V17.9333C1.33333 18.3333 1.6 18.6 2 18.6H8.66667C9.06667 18.6 9.33333 18.3333 9.33333 17.9333V15.9333C10.2667 15.7333 10.6667 15.0667 10.6667 14.4667C10.6667 13.8667 10.2667 13.2 9.33333 13ZM8.66667 14.7333C8.33333 14.7333 8 15.0667 8 15.4V17.3333H2.66667V16.2667C2.66667 16.0667 2.53333 15.9333 2.4 15.8C2.26667 15.6667 2.06667 15.6 1.86667 15.6667C1.53333 15.6667 1.33333 15.3333 1.33333 14.9333C1.33333 14.5333 1.6 14.2 1.86667 14.2H1.93333C2.13333 14.2 2.33333 14.1333 2.46667 14C2.6 13.8 2.66667 13.6667 2.66667 13.4667V12H8V13.6C8 13.9333 8.26667 14.2667 8.66667 14.2667C9.2 14.2667 9.33333 14.4667 9.33333 14.4667C9.33333 14.5333 9.13333 14.6667 8.66667 14.7333Z" fill="#56CEC7"/>
</svg>
