<svg width="20" height="20" viewBox="0 0 20 20" fill="none" xmlns="http://www.w3.org/2000/svg">
<path d="M14.08 17H1.92C0.861074 17 0 16.1225 0 15.0435V6.8913C0 5.81224 0.861074 4.93478 1.92 4.93478H14.08C15.1389 4.93478 16 5.81224 16 6.8913V15.0435C16 16.1225 15.1389 17 14.08 17ZM1.92 6.23913C1.56696 6.23913 1.28 6.53155 1.28 6.8913V15.0435C1.28 15.4032 1.56696 15.6957 1.92 15.6957H14.08C14.433 15.6957 14.72 15.4032 14.72 15.0435V6.8913C14.72 6.53155 14.433 6.23913 14.08 6.23913H1.92Z" fill="#3556A3"/>
<path d="M10.88 6.23913H5.12V4.21599C5.12 2.99424 6.09573 2 7.29463 2H8.70514C9.90423 2 10.88 2.99429 10.88 4.21599L10.88 6.23913ZM6.4 4.93478H9.6V4.21599C9.6 3.71321 9.19875 3.30435 8.70537 3.30435H7.29486C6.80128 3.30435 6.40005 3.71323 6.40005 4.21599L6.4 4.93478Z" fill="#3556A3"/>
<path d="M6.08 10.4783H9.92V11.7826H6.08V10.4783Z" fill="#3556A3"/>
</svg>
