<svg width="20" height="20" viewBox="0 0 20 20" fill="none" xmlns="http://www.w3.org/2000/svg">
<path d="M1.7 8.99H7.36667C7.70667 8.99 7.93333 8.76333 7.93333 8.42333V6.72333C7.93333 6.55333 7.87667 6.44 7.70667 6.32667C7.59333 6.21333 7.42333 6.15667 7.25333 6.15667C6.74333 6.15667 6.46 5.98667 6.46 5.64667C6.46 5.42 6.46 5.13667 7.08333 5.13667H7.31C7.48 5.13667 7.65 5.08 7.76333 4.96667C7.87667 4.85333 7.93333 4.68333 7.93333 4.57V2.75667C7.93333 2.41667 7.70667 2.19 7.36667 2.19H5.61C5.44 1.45333 4.76 1 3.96667 1C3.17333 1 2.49333 1.45333 2.32333 2.19H1.7C1.36 2.19 1.13333 2.41667 1.13333 2.75667V8.42333C1.13333 8.70667 1.36 8.99 1.7 8.99ZM2.26667 3.32333H2.83333C3.00333 3.32333 3.17333 3.26667 3.23 3.15333C3.4 2.98333 3.4 2.81333 3.4 2.64333V2.58667C3.4 1.96333 4.53333 1.96333 4.53333 2.58667L5.1 2.64333H4.53333C4.53333 2.81333 4.53333 2.98333 4.64667 3.09667C4.76 3.21 4.93 3.32333 5.1 3.32333H6.8V4.00333C5.89333 4.11667 5.38333 4.74 5.38333 5.64667C5.38333 6.49667 5.95 7.12 6.8 7.23333V7.85667H2.26667V3.32333Z" fill="#3556A3"/>
<path d="M15.8667 3.72V2.75667C15.8667 2.41667 15.64 2.19 15.3 2.19H9.63333C9.29333 2.19 9.06667 2.41667 9.06667 2.75667V4.45667C8.27333 4.62667 7.93333 5.19333 7.93333 5.70333C7.93333 6.21333 8.27333 6.78 9.06667 6.95V8.36667C9.06667 8.70667 9.29333 8.93333 9.63333 8.93333H15.3C15.64 8.93333 15.8667 8.70667 15.8667 8.36667V7.06333C16.5467 6.83667 17 6.15667 17 5.42C17 4.62667 16.5467 3.94667 15.8667 3.72ZM15.4133 5.98667H15.3567C15.1867 5.98667 15.0167 6.04333 14.9033 6.15667C14.79 6.27 14.7333 6.44 14.7333 6.55333V7.8H10.2V6.44C10.2 6.15667 9.97333 5.87333 9.63333 5.87333C9.18 5.87333 9.06667 5.70333 9.06667 5.70333C9.06667 5.64667 9.23667 5.53333 9.63333 5.53333C9.91667 5.53333 10.2 5.25 10.2 4.96667V3.32333H14.7333V4.23C14.7333 4.4 14.8467 4.51333 14.96 4.62667C15.0733 4.74 15.2433 4.79667 15.4133 4.74C15.6967 4.74 15.8667 5.02333 15.8667 5.36333C15.8667 5.76 15.64 5.98667 15.4133 5.98667Z" fill="#3556A3"/>
<path d="M15.3 10.01H9.63333C9.29333 10.01 9.06667 10.2367 9.06667 10.5767V12.2767C9.06667 12.4467 9.12333 12.56 9.29333 12.6733C9.40667 12.7867 9.57667 12.8433 9.74667 12.8433C10.2567 12.8433 10.54 13.0133 10.54 13.3533C10.54 13.58 10.54 13.8633 9.91667 13.8633H9.69C9.52 13.8633 9.35 13.92 9.23667 14.0333C9.12333 14.1467 9.06667 14.3167 9.06667 14.43V16.2433C9.06667 16.5833 9.29333 16.81 9.63333 16.81H11.39C11.56 17.49 12.24 18 13.0333 18C13.8267 18 14.5067 17.5467 14.6767 16.81H15.3C15.64 16.81 15.8667 16.5833 15.8667 16.2433V10.5767C15.8667 10.2933 15.64 10.01 15.3 10.01ZM14.1667 15.6767C13.9967 15.6767 13.8267 15.7333 13.77 15.8467C13.6 16.0167 13.6 16.1867 13.6 16.3567V16.4133C13.6 17.0367 12.4667 17.0367 12.4667 16.4133V16.3567C12.4667 16.1867 12.41 16.0167 12.3533 15.9033C12.24 15.79 12.07 15.7333 11.9567 15.7333H10.2567V15.0533C11.1633 14.94 11.6733 14.3167 11.6733 13.41C11.6733 12.56 11.1067 11.9367 10.2567 11.8233V11.2H14.79V15.6767H14.1667Z" fill="#3556A3"/>
<path d="M7.93333 12.05V10.6333C7.93333 10.2933 7.70667 10.0667 7.36667 10.0667H1.7C1.36 10.0667 1.13333 10.2933 1.13333 10.6333V11.9367C0.453333 12.1633 0 12.8433 0 13.58C0 14.3733 0.453333 15.0533 1.13333 15.2233V16.2433C1.13333 16.5833 1.36 16.81 1.7 16.81H7.36667C7.70667 16.81 7.93333 16.5833 7.93333 16.2433V14.5433C8.72667 14.3733 9.06667 13.8067 9.06667 13.2967C9.06667 12.7867 8.72667 12.22 7.93333 12.05ZM7.36667 13.5233C7.08333 13.5233 6.8 13.8067 6.8 14.09V15.7333H2.26667V14.8267C2.26667 14.6567 2.15333 14.5433 2.04 14.43C1.92667 14.3167 1.75667 14.26 1.58667 14.3167C1.30333 14.3167 1.13333 14.0333 1.13333 13.6933C1.13333 13.3533 1.36 13.07 1.58667 13.07H1.64333C1.81333 13.07 1.98333 13.0133 2.09667 12.9C2.21 12.73 2.26667 12.6167 2.26667 12.4467V11.2H6.8V12.56C6.8 12.8433 7.02667 13.1267 7.36667 13.1267C7.82 13.1267 7.93333 13.2967 7.93333 13.2967C7.93333 13.3533 7.76333 13.4667 7.36667 13.5233Z" fill="#3556A3"/>
</svg>
