<svg width="20" height="20" viewBox="0 0 20 20" fill="none" xmlns="http://www.w3.org/2000/svg">
<path d="M16.5991 5.56005C16.2526 5.11507 15.7135 4.84419 15.1552 4.84419H3.57378L3.20796 3.41239C2.99619 2.58048 2.2646 2 1.41762 2H0.596769C0.269507 2 0 2.27087 0 2.59976C0 2.92866 0.269517 3.19952 0.596769 3.19952H1.41762C1.70634 3.19952 1.95667 3.39306 2.03375 3.68323L4.38246 11.7893C4.59423 12.6212 5.32582 13.2017 6.1728 13.2017H13.7114C14.5585 13.2017 15.3093 12.6212 15.5017 11.7893L16.9456 7.12722C17.0803 6.58547 16.9649 6.00513 16.5991 5.56005ZM15.7713 6.85638L14.3275 11.5185C14.2505 11.8086 14.0002 12.0022 13.7113 12.0022H6.17276C5.88404 12.0022 5.63371 11.8086 5.55664 11.5185L3.88177 6.0631H15.1552C15.3478 6.0631 15.5402 6.15987 15.6557 6.31467C15.7713 6.46947 15.8291 6.66297 15.7713 6.85638Z" fill="#3556A3"/>
<path d="M6.57705 13.9757C5.47963 13.9757 4.57494 14.8851 4.57494 15.9879C4.57494 17.0908 5.47977 18 6.57705 18C7.67447 18.0001 8.5793 17.0908 8.5793 15.9879C8.5793 14.8851 7.67447 13.9757 6.57705 13.9757ZM6.57705 16.7812C6.13429 16.7812 5.78769 16.433 5.78769 15.9879C5.78769 15.5429 6.13416 15.1945 6.57705 15.1945C7.0198 15.1945 7.3664 15.5427 7.3664 15.9879C7.3664 16.4135 7.00059 16.7812 6.57705 16.7812Z" fill="#3556A3"/>
<path d="M13.0568 13.9757C11.9594 13.9757 11.0547 14.8851 11.0547 15.9879C11.0547 17.0908 11.9595 18 13.0568 18C14.1542 18 15.0589 17.0906 15.0589 15.9879C15.0397 14.8851 14.1542 13.9757 13.0568 13.9757ZM13.0568 16.7812C12.614 16.7812 12.2674 16.433 12.2674 15.9879C12.2674 15.5429 12.6139 15.1945 13.0568 15.1945C13.4995 15.1945 13.8461 15.5427 13.8461 15.9879C13.8461 16.4135 13.4803 16.7812 13.0568 16.7812Z" fill="#3556A3"/>
</svg>
