<svg width="20" height="20" viewBox="0 0 20 20" fill="none" xmlns="http://www.w3.org/2000/svg">
<path d="M5.14286 8.85714H0.571429C0.419899 8.85714 0.274488 8.91735 0.167347 9.02449C0.0602057 9.13163 0 9.27704 0 9.42857V16.2857C0 16.7404 0.180611 17.1764 0.502041 17.498C0.823598 17.8194 1.25956 18 1.71429 18H5.14286C5.29439 18 5.4398 17.9398 5.54694 17.8327C5.65408 17.7255 5.71429 17.5801 5.71429 17.4286V9.42857C5.71429 9.27704 5.65408 9.13163 5.54694 9.02449C5.4398 8.91735 5.29439 8.85714 5.14286 8.85714ZM4.57143 16.8571H1.71429C1.56276 16.8571 1.41735 16.7969 1.3102 16.6898C1.20306 16.5827 1.14286 16.4372 1.14286 16.2857V10H4.57143V16.8571ZM14.2857 2H1.71429C1.25956 2 0.823608 2.18061 0.502041 2.50204C0.180611 2.8236 0 3.25956 0 3.71429V7.14286C0 7.29439 0.0602057 7.4398 0.167347 7.54694C0.274488 7.65408 0.419899 7.71429 0.571429 7.71429H15.4286C15.5801 7.71429 15.7255 7.65408 15.8327 7.54694C15.9398 7.4398 16 7.29439 16 7.14286V3.71429C16 3.25956 15.8194 2.82361 15.498 2.50204C15.1764 2.18061 14.7404 2 14.2857 2ZM14.8571 6.57143H1.14286V3.71429C1.14286 3.56276 1.20306 3.41735 1.3102 3.3102C1.41735 3.20306 1.56276 3.14286 1.71429 3.14286H14.2857C14.4372 3.14286 14.5827 3.20306 14.6898 3.3102C14.7969 3.41735 14.8571 3.56276 14.8571 3.71429V6.57143ZM15.4286 8.85714H7.42857C7.27704 8.85714 7.13163 8.91735 7.02449 9.02449C6.91735 9.13163 6.85714 9.27704 6.85714 9.42857V17.4286C6.85714 17.5801 6.91735 17.7255 7.02449 17.8327C7.13163 17.9398 7.27704 18 7.42857 18H14.2857C14.7404 18 15.1764 17.8194 15.498 17.498C15.8194 17.1764 16 16.7404 16 16.2857V9.42857C16 9.27704 15.9398 9.13163 15.8327 9.02449C15.7255 8.91735 15.5801 8.85714 15.4286 8.85714ZM14.8571 16.2857C14.8571 16.4372 14.7969 16.5827 14.6898 16.6898C14.5827 16.7969 14.4372 16.8571 14.2857 16.8571H8V10H14.8571V16.2857Z" fill="#3556A3"/>
</svg>
