<svg width="20" height="20" viewBox="0 0 20 20" fill="none" xmlns="http://www.w3.org/2000/svg">
<path d="M3.54779 4.72579C2.37214 6.16246 1.66693 7.99868 1.66693 9.99971C1.66693 12.0008 2.37214 13.8372 3.54779 15.2736L6.52393 12.2975C6.08754 11.6388 5.8335 10.8489 5.8335 9.99964C5.8335 9.15043 6.08755 8.36054 6.52393 7.70179L3.54779 4.72579ZM4.72621 3.54736L7.70236 6.5235C8.36111 6.08711 9.151 5.83307 10.0002 5.83307C10.8494 5.83307 11.6393 6.08712 12.2981 6.5235L15.2742 3.54736C13.8375 2.37171 12.0013 1.6665 10.0003 1.6665C7.99925 1.6665 6.16264 2.37171 4.72621 3.54736ZM15.2741 16.4524L12.2979 13.4762C11.6392 13.9126 10.8493 14.1666 10.0001 14.1666C9.15086 14.1666 8.36096 13.9126 7.70221 13.4762L4.72607 16.4524C6.16275 17.628 7.99896 18.3332 10 18.3332C12.001 18.3332 13.8376 17.628 15.2741 16.4524ZM16.4525 15.2739C17.6281 13.8372 18.3334 12.001 18.3334 10C18.3334 7.99896 17.6281 6.1625 16.4525 4.72607L13.4764 7.70221C13.9127 8.36096 14.1668 9.15086 14.1668 10.0001C14.1668 10.8493 13.9127 11.6392 13.4764 12.2979L16.4525 15.2739ZM10 20C4.47714 20 0 15.5229 0 10C0 4.47714 4.47714 0 10 0C15.5229 0 20 4.47714 20 10C20 15.5229 15.5229 20 10 20ZM10 12.5C11.3807 12.5 12.5 11.3807 12.5 10C12.5 8.61929 11.3807 7.5 10 7.5C8.61929 7.5 7.5 8.61929 7.5 10C7.5 11.3807 8.61929 12.5 10 12.5Z" fill="#56CEC7"/>
</svg>
