<svg width="20" height="20" viewBox="0 0 20 20" fill="none" xmlns="http://www.w3.org/2000/svg">
<path d="M2.83823 5.78063C1.89771 6.92997 1.33354 8.39894 1.33354 9.99977C1.33354 11.6006 1.89771 13.0698 2.83823 14.2189L5.21914 11.838C4.87003 11.311 4.6668 10.6791 4.6668 9.99971C4.6668 9.32034 4.87004 8.68843 5.21914 8.16143L2.83823 5.78063ZM3.78097 4.83789L6.16189 7.2188C6.68889 6.86969 7.3208 6.66646 8.00017 6.66646C8.67954 6.66646 9.31146 6.86969 9.83846 7.2188L12.2194 4.83789C11.07 3.89737 9.60106 3.3332 8.00023 3.3332C6.3994 3.3332 4.93011 3.89737 3.78097 4.83789ZM12.2193 15.1619L9.83834 12.781C9.31134 13.1301 8.67943 13.3333 8.00006 13.3333C7.32068 13.3333 6.68877 13.1301 6.16177 12.781L3.78086 15.1619C4.9302 16.1024 6.39917 16.6666 8 16.6666C9.60083 16.6666 11.0701 16.1024 12.2193 15.1619ZM13.162 14.2191C14.1025 13.0698 14.6667 11.6008 14.6667 10C14.6667 8.39917 14.1025 6.93 13.162 5.78086L10.7811 8.16177C11.1302 8.68877 11.3334 9.32069 11.3334 10.0001C11.3334 10.6794 11.1302 11.3113 10.7811 11.8383L13.162 14.2191ZM8 18C3.58171 18 0 14.4183 0 10C0 5.58171 3.58171 2 8 2C12.4183 2 16 5.58171 16 10C16 14.4183 12.4183 18 8 18ZM8 12C9.10457 12 10 11.1046 10 10C10 8.89543 9.10457 8 8 8C6.89543 8 6 8.89543 6 10C6 11.1046 6.89543 12 8 12Z" fill="#3556A3"/>
</svg>
