<svg width="9" height="8" viewBox="0 0 9 8" fill="none" xmlns="http://www.w3.org/2000/svg">
<path d="M4.52795 7.4991C4.71165 7.49244 4.88686 7.41333 5.02004 7.27656L8.76929 3.39392C8.91292 3.24507 8.99587 3.04081 8.99985 2.82608C9.00383 2.61122 8.92851 2.40358 8.79052 2.24865C8.65254 2.09382 8.46308 2.00434 8.26402 2.00016C8.06495 1.99587 7.87236 2.07724 7.72885 2.22608L4.49994 5.56793L1.27104 2.22637C1.07761 2.02584 0.79976 1.95181 0.542106 2.03227C0.28445 2.11273 0.0862246 2.33526 0.0218716 2.61626C-0.0423584 2.89713 0.0371447 3.19369 0.23057 3.39412L3.97982 7.27676V7.27688C4.12711 7.42809 4.32504 7.50844 4.5282 7.4993L4.52795 7.4991Z" fill="#B3BFDC"/>
</svg>
