<svg width="20" height="20" viewBox="0 0 20 20" fill="none" xmlns="http://www.w3.org/2000/svg">
<path d="M6.42857 8.57143H0.714286C0.524873 8.57143 0.34311 8.64669 0.209184 8.78061C0.0752571 8.91454 0 9.0963 0 9.28571V17.8571C0 18.4256 0.225763 18.9705 0.627551 19.3724C1.0295 19.7742 1.57445 20 2.14286 20H6.42857C6.61798 20 6.79975 19.9247 6.93367 19.7908C7.0676 19.6569 7.14286 19.4751 7.14286 19.2857V9.28571C7.14286 9.0963 7.0676 8.91454 6.93367 8.78061C6.79975 8.64669 6.61798 8.57143 6.42857 8.57143ZM5.71429 18.5714H2.14286C1.95344 18.5714 1.77168 18.4962 1.63776 18.3622C1.50383 18.2283 1.42857 18.0466 1.42857 17.8571V10H5.71429V18.5714ZM17.8571 0H2.14286C1.57445 0 1.02951 0.225763 0.627551 0.627551C0.225763 1.0295 0 1.57445 0 2.14286V6.42857C0 6.61798 0.0752571 6.79975 0.209184 6.93367C0.34311 7.0676 0.524873 7.14286 0.714286 7.14286H19.2857C19.4751 7.14286 19.6569 7.0676 19.7908 6.93367C19.9247 6.79975 20 6.61798 20 6.42857V2.14286C20 1.57445 19.7742 1.02951 19.3724 0.627551C18.9705 0.225763 18.4256 0 17.8571 0ZM18.5714 5.71429H1.42857V2.14286C1.42857 1.95344 1.50383 1.77168 1.63776 1.63776C1.77168 1.50383 1.95344 1.42857 2.14286 1.42857H17.8571C18.0466 1.42857 18.2283 1.50383 18.3622 1.63776C18.4962 1.77168 18.5714 1.95344 18.5714 2.14286V5.71429ZM19.2857 8.57143H9.28571C9.0963 8.57143 8.91454 8.64669 8.78061 8.78061C8.64669 8.91454 8.57143 9.0963 8.57143 9.28571V19.2857C8.57143 19.4751 8.64669 19.6569 8.78061 19.7908C8.91454 19.9247 9.0963 20 9.28571 20H17.8571C18.4256 20 18.9705 19.7742 19.3724 19.3724C19.7742 18.9705 20 18.4256 20 17.8571V9.28571C20 9.0963 19.9247 8.91454 19.7908 8.78061C19.6569 8.64669 19.4751 8.57143 19.2857 8.57143ZM18.5714 17.8571C18.5714 18.0466 18.4962 18.2283 18.3622 18.3622C18.2283 18.4962 18.0466 18.5714 17.8571 18.5714H10V10H18.5714V17.8571Z" fill="#56CEC7"/>
</svg>
