<svg width="16" height="17" viewBox="0 0 16 17" fill="none" xmlns="http://www.w3.org/2000/svg">
<path d="M13.5285 7.37734H4.35742C4.11968 7.37734 3.71348 7.71007 3.71348 8.09039C3.71348 8.4944 4.11986 8.80344 4.35742 8.80344H13.5285L11.4946 10.4891C11.2094 10.7742 11.2094 11.2258 11.4946 11.511C11.7797 11.7961 12.2313 11.7961 12.5164 11.511L15.7861 8.58958C16.0713 8.30442 16.0713 7.85285 15.7861 7.56769L12.5164 4.6463C12.2313 4.36114 11.7797 4.36114 11.4946 4.6463C11.2094 4.93145 11.2094 5.38303 11.4946 5.66819L13.5285 7.37734Z" fill="white"/>
<path d="M10.9377 1.63997C11.3476 1.63997 11.6757 1.25735 11.6757 0.819987C11.6757 0.382643 11.3478 0 10.9377 0H2.89707C1.31185 0 0 1.33928 0 3.06106V13.1021C0 14.7966 1.31185 16.1631 2.89707 16.1631H10.9377C11.3476 16.1631 11.6757 15.7805 11.6757 15.3431C11.6757 14.9058 11.3478 14.5231 10.9377 14.5231H2.89707C2.10456 14.5231 1.47579 13.8946 1.47579 13.1293V3.08829C1.47579 2.3503 2.10436 1.69444 2.89707 1.69444L10.9377 1.69463V1.63997Z" fill="white"/>
</svg>
