<svg width="20" height="20" viewBox="0 0 20 20" fill="none" xmlns="http://www.w3.org/2000/svg">
<path d="M17.6 19H2.4C1.07634 19 0 17.8886 0 16.5217V6.19565C0 4.82883 1.07634 3.71739 2.4 3.71739H17.6C18.9237 3.71739 20 4.82883 20 6.19565V16.5217C20 17.8886 18.9237 19 17.6 19ZM2.4 5.36957C1.9587 5.36957 1.6 5.73996 1.6 6.19565V16.5217C1.6 16.9774 1.9587 17.3478 2.4 17.3478H17.6C18.0413 17.3478 18.4 16.9774 18.4 16.5217V6.19565C18.4 5.73996 18.0413 5.36957 17.6 5.36957H2.4Z" fill="#56CEC7"/>
<path d="M13.6 5.36957H6.4V2.80693C6.4 1.25937 7.61966 0 9.11829 0H10.8814C12.3803 0 13.5999 1.25943 13.5999 2.80693L13.6 5.36957ZM8 3.71739H12V2.80693C12 2.17007 11.4984 1.65217 10.8817 1.65217H9.11857C8.5016 1.65217 8.00006 2.17009 8.00006 2.80693L8 3.71739Z" fill="#56CEC7"/>
<path d="M7.6 10.7391H12.4V12.3913H7.6V10.7391Z" fill="#56CEC7"/>
</svg>
