<svg width="20" height="20" viewBox="0 0 20 20" fill="none" xmlns="http://www.w3.org/2000/svg">
<path fill-rule="evenodd" clip-rule="evenodd" d="M9.33824 2.55406V4.64251C9.33824 5.16464 9.54788 5.66587 9.92111 6.0355C10.2946 6.40466 10.8012 6.61244 11.3293 6.61244H13.4399C13.749 6.61244 13.9998 6.36428 13.9998 6.05848C13.9998 5.75267 13.749 5.50453 13.4399 5.50453H11.3293C11.0982 5.50453 10.8763 5.41354 10.7132 5.2518C10.5496 5.09032 10.4581 4.87092 10.4581 4.64254V2.55409C10.4581 2.24828 10.2072 2.00013 9.89816 2.00013C9.58908 2.00013 9.33826 2.24829 9.33826 2.55409L9.33824 2.55406Z" fill="#3556A3"/>
<path fill-rule="evenodd" clip-rule="evenodd" d="M13.9575 5.84644C13.9303 5.78088 13.8898 5.71964 13.8362 5.66656L10.2944 2.1621C10.2408 2.10901 10.1789 2.06901 10.1128 2.0421C10.0465 2.01481 9.97425 2 9.89838 2H1.99109C1.46301 2 0.956747 2.20778 0.583632 2.57693C0.209654 2.94656 0 3.44745 0 3.96993V16.0301C0 16.5525 0.209638 17.0534 0.583248 17.4233C0.956715 17.7926 1.46298 18 1.99106 18H12.0089C12.537 18 13.0433 17.7926 13.4168 17.4233C13.7903 17.0534 14 16.5525 14 16.0301V6.05844C14 5.98338 13.9849 5.91189 13.9574 5.84646L13.9575 5.84644ZM9.66663 3.10795H1.99126C1.76016 3.10795 1.53866 3.19894 1.37558 3.36067H1.37521C1.21174 3.52241 1.12015 3.74118 1.12015 3.96994V16.0301C1.12015 16.2587 1.21174 16.4779 1.37558 16.6396C1.53868 16.8015 1.76017 16.8921 1.99126 16.8921H12.0091C12.2402 16.8921 12.4617 16.8015 12.6248 16.6396C12.7887 16.4779 12.8803 16.2587 12.8803 16.0301V6.28759L9.66663 3.10795Z" fill="#3556A3"/>
</svg>
