<svg width="32" height="32" viewBox="0 0 32 32" fill="none" xmlns="http://www.w3.org/2000/svg">
<circle cx="16" cy="16" r="16" fill="#E1E8F1"/>
<path d="M19.2286 16.5579C20.2214 15.6699 20.8103 14.4162 20.8596 13.0852C20.909 11.7541 20.4148 10.4601 19.4906 9.5009C18.5663 8.54189 17.2917 8 15.9597 8C14.6277 8 13.3531 8.54194 12.4289 9.5009C11.5046 10.4601 11.0104 11.7541 11.0598 13.0852C11.1092 14.4162 11.698 15.6699 12.6909 16.5579C11.3214 17.0375 10.1348 17.9302 9.29455 19.113C8.45433 20.2956 8.00209 21.7101 8 23.1611C8 23.4607 8.15999 23.7377 8.41955 23.8877C8.67911 24.0374 8.9989 24.0374 9.25846 23.8877C9.51821 23.7378 9.67801 23.4607 9.67801 23.1611C9.67953 21.7483 10.2414 20.3939 11.2403 19.395C12.2392 18.3961 13.5936 17.8342 15.0062 17.8327H16.9348C18.3476 17.8342 19.702 18.3961 20.7009 19.395C21.6998 20.3939 22.2617 21.7483 22.2632 23.1611C22.2632 23.4607 22.423 23.7377 22.6826 23.8877C22.9421 24.0374 23.2621 24.0374 23.5217 23.8877C23.7812 23.7378 23.941 23.4607 23.941 23.1611C23.9376 21.7074 23.4821 20.2911 22.6377 19.1081C21.7933 17.9251 20.6019 17.0337 19.2285 16.5579H19.2286ZM15.9598 9.72053C16.8108 9.72053 17.6269 10.0586 18.2287 10.6603C18.8307 11.2621 19.1687 12.0784 19.1687 12.9295C19.1687 13.7805 18.8307 14.5966 18.2287 15.1984C17.627 15.8002 16.8109 16.1382 15.9598 16.1382C15.1086 16.1382 14.2926 15.8002 13.6908 15.1984C13.0888 14.5967 12.7508 13.7806 12.7508 12.9295C12.7508 12.0783 13.0888 11.2621 13.6908 10.6603C14.2925 10.0586 15.1086 9.72053 15.9598 9.72053Z" fill="#7588B7"/>
</svg>
