<svg width="100" height="100" viewBox="0 0 100 100" fill="none" xmlns="http://www.w3.org/2000/svg">
<path d="M49.9998 0C62.5059 0 74.5579 4.68663 83.7785 13.1354C92.9992 21.5842 98.7188 33.1817 99.8093 45.6401C100.9 58.0985 97.2819 70.5133 89.6693 80.4355C82.0567 90.3577 71.0022 97.0669 58.6863 99.2395C46.3704 101.412 33.6875 98.8906 23.1393 92.1722C12.5911 85.4538 4.94353 75.0264 1.70523 62.9468C-1.53307 50.8673 -0.127016 38.0128 5.64604 26.9189C11.4191 15.8251 21.14 7.29745 32.8911 3.01818L39.7346 21.8109C32.6839 24.3784 26.8514 29.495 23.3876 36.1513C19.9237 42.8076 19.0801 50.5204 21.0231 57.7681C22.9661 65.0158 27.5546 71.2722 33.8835 75.3033C40.2124 79.3344 47.8222 80.8473 55.2117 79.5437C62.6013 78.2401 69.234 74.2146 73.8015 68.2613C78.3691 62.308 80.5398 54.8591 79.8855 47.384C79.2312 39.909 75.7994 32.9505 70.2671 27.8812C64.7347 22.812 57.5035 20 49.9998 20V0Z" fill="#56CEC7"/>
<path d="M32.8912 3.01818C38.3715 1.02248 44.1588 0.00101795 49.9912 0L49.9947 20C46.4952 20.0006 43.0229 20.6135 39.7347 21.8109L32.8912 3.01818Z" fill="#E62424"/>
</svg>
