<svg width="17" height="17" viewBox="0 0 17 17" fill="none" xmlns="http://www.w3.org/2000/svg">
<path d="M14.1384 0.5H6.0712C5.54191 0.5 5.03418 0.710301 4.65987 1.08461C4.28556 1.45893 4.07526 1.96669 4.07526 2.49613V4.44037H2.00136C1.47281 4.43892 0.965406 4.64723 0.590215 5.01956C0.215 5.3917 0.00287006 5.89766 0 6.42603V14.5039C0.0014466 15.0328 0.212107 15.5398 0.586234 15.9138C0.96018 16.2879 1.4672 16.4986 1.99613 16.5H10.0633C10.5926 16.5 11.1003 16.2897 11.4747 15.9154C11.849 15.5411 12.0593 15.0333 12.0593 14.5039V12.5596H14.1332C14.6617 12.5611 15.1691 12.3528 15.5443 11.9804C15.9195 11.6083 16.1317 11.1023 16.1345 10.574V2.49613C16.1331 1.9672 15.9224 1.46018 15.5483 1.08623C15.1743 0.712107 14.6673 0.501435 14.1384 0.5ZM10.4626 14.4985L10.4624 14.4987C10.4624 14.7191 10.2837 14.8978 10.0633 14.8978H1.99613C1.77679 14.8951 1.59976 14.7178 1.59687 14.4987V6.42594C1.59687 6.20551 1.7757 6.02667 1.99613 6.02667H10.0633C10.1696 6.02541 10.272 6.067 10.347 6.14222C10.4223 6.21726 10.4638 6.31961 10.4624 6.42594V14.5038L10.4626 14.4985ZM14.5377 10.5739C14.5377 10.7943 14.3588 10.9731 14.1384 10.9731H12.0645V6.42608C12.0645 5.89678 11.8542 5.38906 11.4799 5.01475C11.1056 4.64026 10.5978 4.42995 10.0684 4.42995H5.67194V2.49622C5.67194 2.2758 5.8506 2.09696 6.07102 2.09696H14.1382C14.3576 2.09985 14.5346 2.27688 14.5375 2.49622L14.5377 10.5739Z" fill="#7488B7"/>
</svg>
