<svg width="1051" height="274" viewBox="0 0 1051 274" fill="none" xmlns="http://www.w3.org/2000/svg">
<path d="M69.5434 266.703C68.9694 267.697 68.1549 268.24 67.0999 268.332C66.0414 268.41 64.8049 268.041 63.3904 267.224C61.9517 266.394 61.0138 265.507 60.577 264.566C60.1367 263.611 60.2035 262.636 60.7775 261.642C61.3562 260.64 62.1667 260.095 63.209 260.007C64.2432 259.914 65.4756 260.281 66.9063 261.107C68.3289 261.928 69.2684 262.821 69.7249 263.785C70.1779 264.736 70.1174 265.709 69.5434 266.703ZM68.5007 266.101C68.8554 265.487 68.8483 264.874 68.4794 264.262C68.1105 263.65 67.3481 263.011 66.1923 262.343C65.0364 261.676 64.1095 261.34 63.4114 261.336C62.71 261.319 62.1796 261.622 61.8202 262.244C61.4656 262.858 61.4686 263.469 61.8294 264.076C62.1902 264.683 62.9445 265.318 64.0923 265.981C65.2481 266.648 66.1832 266.989 66.8974 267.002C67.6116 267.016 68.1461 266.715 68.5007 266.101ZM73.7407 259.433C73.176 260.411 72.5249 261.054 71.7872 261.361C71.0543 261.66 70.3119 261.592 69.5602 261.158C69.0348 260.855 68.6696 260.461 68.4645 259.976C68.256 259.478 68.2138 258.964 68.3377 258.432C67.9346 258.738 67.4916 258.908 67.0087 258.941C66.5177 258.97 66.0419 258.852 65.5812 258.586C64.8699 258.175 64.4638 257.591 64.363 256.832C64.2622 256.073 64.4661 255.253 64.9748 254.372C65.4881 253.483 66.0985 252.893 66.806 252.601C67.5135 252.308 68.2229 252.368 68.9342 252.778C69.3949 253.044 69.7331 253.401 69.9487 253.849C70.169 254.289 70.2434 254.757 70.1717 255.255C70.5751 254.874 71.042 254.653 71.5725 254.593C72.0949 254.528 72.6188 254.647 73.1442 254.95C73.8959 255.384 74.3233 255.998 74.4262 256.79C74.5339 257.574 74.3054 258.455 73.7407 259.433ZM68.8061 256.584C69.1188 256.043 69.2361 255.55 69.1582 255.106C69.0769 254.65 68.814 254.293 68.3694 254.037C67.9329 253.785 67.5007 253.74 67.0728 253.902C66.6496 254.057 66.2817 254.405 65.969 254.946C65.6563 255.488 65.5389 255.98 65.6168 256.424C65.6947 256.868 65.9519 257.216 66.3884 257.468C66.833 257.724 67.2709 257.778 67.7022 257.628C68.1255 257.474 68.4934 257.126 68.8061 256.584ZM72.7465 258.859C73.4885 257.574 73.3664 256.647 72.3803 256.077C71.4023 255.513 70.5423 255.873 69.8003 257.158C69.4363 257.789 69.2799 258.34 69.331 258.811C69.3868 259.274 69.6613 259.648 70.1543 259.933C71.1404 260.502 72.0045 260.144 72.7465 258.859ZM73.4787 253.307L72.4845 252.733L74.5005 249.241L75.4947 249.815L73.4787 253.307ZM79.3248 249.509L78.3912 248.97L76.9809 244.357C76.7812 243.714 76.5565 243.207 76.307 242.836C76.0621 242.458 75.7618 242.166 75.4062 241.961C74.4847 241.429 73.7113 241.704 73.086 242.787C72.61 243.612 72.4942 244.531 72.7386 245.545L71.5217 245.441C71.3932 244.935 71.3806 244.378 71.484 243.77C71.5794 243.157 71.7834 242.579 72.096 242.038C72.6047 241.157 73.1964 240.599 73.8713 240.363C74.5507 240.12 75.2663 240.215 76.018 240.649C76.5273 240.943 76.952 241.355 77.2923 241.886C77.6373 242.408 77.9329 243.091 78.1792 243.933L79.18 247.324L81.476 243.347L82.5308 243.956L79.3248 249.509ZM83.7461 241.851L82.6913 241.242L83.8113 239.303L77.7733 235.817L77.844 237.878L76.6165 237.848L76.5284 234.613L77.0394 233.728L84.5323 238.054L85.5823 236.235L86.6371 236.844L83.7461 241.851Z" fill="#808080"/>
<path d="M119.893 266.703C119.319 267.697 118.505 268.24 117.45 268.332C116.391 268.41 115.155 268.041 113.74 267.224C112.302 266.394 111.364 265.507 110.927 264.566C110.487 263.611 110.554 262.636 111.128 261.642C111.706 260.64 112.517 260.095 113.559 260.007C114.593 259.914 115.826 260.281 117.256 261.107C118.679 261.928 119.618 262.821 120.075 263.785C120.528 264.736 120.467 265.709 119.893 266.703ZM118.851 266.101C119.205 265.487 119.198 264.874 118.829 264.262C118.461 263.65 117.698 263.011 116.542 262.343C115.386 261.676 114.459 261.34 113.761 261.336C113.06 261.319 112.53 261.622 112.17 262.244C111.816 262.858 111.819 263.469 112.179 264.076C112.54 264.683 113.295 265.318 114.442 265.981C115.598 266.648 116.533 266.989 117.247 267.002C117.962 267.016 118.496 266.715 118.851 266.101ZM124.091 259.433C123.526 260.411 122.875 261.054 122.137 261.361C121.404 261.66 120.662 261.592 119.91 261.158C119.385 260.855 119.02 260.461 118.815 259.976C118.606 259.478 118.564 258.964 118.688 258.432C118.285 258.738 117.842 258.908 117.359 258.941C116.868 258.97 116.392 258.852 115.931 258.586C115.22 258.175 114.814 257.591 114.713 256.832C114.612 256.073 114.816 255.253 115.325 254.372C115.838 253.483 116.449 252.893 117.156 252.601C117.863 252.308 118.573 252.368 119.284 252.778C119.745 253.044 120.083 253.401 120.299 253.849C120.519 254.289 120.593 254.757 120.522 255.255C120.925 254.874 121.392 254.653 121.923 254.593C122.445 254.528 122.969 254.647 123.494 254.95C124.246 255.384 124.673 255.998 124.776 256.79C124.884 257.574 124.655 258.455 124.091 259.433ZM119.156 256.584C119.469 256.043 119.586 255.55 119.508 255.106C119.427 254.65 119.164 254.293 118.719 254.037C118.283 253.785 117.851 253.74 117.423 253.902C117 254.057 116.632 254.405 116.319 254.946C116.006 255.488 115.889 255.98 115.967 256.424C116.045 256.868 116.302 257.216 116.738 257.468C117.183 257.724 117.621 257.778 118.052 257.628C118.475 257.474 118.843 257.126 119.156 256.584ZM123.097 258.859C123.839 257.574 123.716 256.647 122.73 256.077C121.752 255.513 120.892 255.873 120.15 257.158C119.786 257.789 119.63 258.34 119.681 258.811C119.737 259.274 120.011 259.648 120.504 259.933C121.49 260.502 122.355 260.144 123.097 258.859ZM123.829 253.307L122.835 252.733L124.851 249.241L125.845 249.815L123.829 253.307ZM129.675 249.509L128.741 248.97L127.331 244.357C127.131 243.714 126.907 243.207 126.657 242.836C126.412 242.458 126.112 242.166 125.756 241.961C124.835 241.429 124.061 241.704 123.436 242.787C122.96 243.612 122.844 244.531 123.089 245.545L121.872 245.441C121.743 244.935 121.731 244.378 121.834 243.77C121.929 243.157 122.133 242.579 122.446 242.038C122.955 241.157 123.546 240.599 124.221 240.363C124.901 240.12 125.616 240.215 126.368 240.649C126.877 240.943 127.302 241.355 127.642 241.886C127.987 242.408 128.283 243.091 128.529 243.933L129.53 247.324L131.826 243.347L132.881 243.956L129.675 249.509ZM133.872 242.239L132.939 241.7L131.528 237.087C131.328 236.444 131.104 235.937 130.854 235.566C130.609 235.188 130.309 234.896 129.953 234.691C129.032 234.159 128.259 234.434 127.633 235.517C127.157 236.342 127.041 237.261 127.286 238.275L126.069 238.171C125.94 237.665 125.928 237.109 126.031 236.5C126.127 235.887 126.331 235.31 126.643 234.768C127.152 233.887 127.744 233.329 128.419 233.093C129.098 232.85 129.814 232.945 130.565 233.379C131.075 233.673 131.499 234.085 131.84 234.616C132.185 235.138 132.48 235.821 132.727 236.664L133.727 240.054L136.023 236.077L137.078 236.686L133.872 242.239Z" fill="#808080"/>
<path d="M170.243 266.703C169.669 267.697 168.855 268.24 167.8 268.332C166.741 268.41 165.505 268.041 164.09 267.224C162.652 266.394 161.714 265.507 161.277 264.566C160.837 263.611 160.904 262.636 161.478 261.642C162.056 260.64 162.867 260.095 163.909 260.007C164.943 259.914 166.176 260.281 167.606 261.107C169.029 261.928 169.968 262.821 170.425 263.785C170.878 264.736 170.817 265.709 170.243 266.703ZM169.201 266.101C169.555 265.487 169.548 264.874 169.179 264.262C168.811 263.65 168.048 263.011 166.892 262.343C165.736 261.676 164.809 261.34 164.111 261.336C163.41 261.319 162.88 261.622 162.52 262.244C162.166 262.858 162.169 263.469 162.529 264.076C162.89 264.683 163.645 265.318 164.792 265.981C165.948 266.648 166.883 266.989 167.597 267.002C168.312 267.016 168.846 266.715 169.201 266.101ZM174.441 259.433C173.876 260.411 173.225 261.054 172.487 261.361C171.754 261.66 171.012 261.592 170.26 261.158C169.735 260.855 169.37 260.461 169.165 259.976C168.956 259.478 168.914 258.964 169.038 258.432C168.635 258.738 168.192 258.908 167.709 258.941C167.218 258.97 166.742 258.852 166.281 258.586C165.57 258.175 165.164 257.591 165.063 256.832C164.962 256.073 165.166 255.253 165.675 254.372C166.188 253.483 166.799 252.893 167.506 252.601C168.213 252.308 168.923 252.368 169.634 252.778C170.095 253.044 170.433 253.401 170.649 253.849C170.869 254.289 170.943 254.757 170.872 255.255C171.275 254.874 171.742 254.653 172.273 254.593C172.795 254.528 173.319 254.647 173.844 254.95C174.596 255.384 175.023 255.998 175.126 256.79C175.234 257.574 175.005 258.455 174.441 259.433ZM169.506 256.584C169.819 256.043 169.936 255.55 169.858 255.106C169.777 254.65 169.514 254.293 169.069 254.037C168.633 253.785 168.201 253.74 167.773 253.902C167.35 254.057 166.982 254.405 166.669 254.946C166.356 255.488 166.239 255.98 166.317 256.424C166.395 256.868 166.652 257.216 167.088 257.468C167.533 257.724 167.971 257.778 168.402 257.628C168.825 257.474 169.193 257.126 169.506 256.584ZM173.447 258.859C174.189 257.574 174.066 256.647 173.08 256.077C172.102 255.513 171.242 255.873 170.5 257.158C170.136 257.789 169.98 258.34 170.031 258.811C170.087 259.274 170.361 259.648 170.854 259.933C171.84 260.502 172.705 260.144 173.447 258.859ZM174.179 253.307L173.185 252.733L175.201 249.241L176.195 249.815L174.179 253.307ZM180.025 249.509L179.091 248.97L177.681 244.357C177.481 243.714 177.257 243.207 177.007 242.836C176.762 242.458 176.462 242.166 176.106 241.961C175.185 241.429 174.411 241.704 173.786 242.787C173.31 243.612 173.194 244.531 173.439 245.545L172.222 245.441C172.093 244.935 172.081 244.378 172.184 243.77C172.279 243.157 172.483 242.579 172.796 242.038C173.305 241.157 173.896 240.599 174.571 240.363C175.251 240.12 175.966 240.215 176.718 240.649C177.227 240.943 177.652 241.355 177.992 241.886C178.337 242.408 178.633 243.091 178.879 243.933L179.88 247.324L182.176 243.347L183.231 243.956L180.025 249.509ZM184.222 242.239L183.289 241.7L181.878 237.087C181.678 236.444 181.454 235.937 181.204 235.566C180.959 235.188 180.659 234.896 180.303 234.691C179.382 234.159 178.609 234.434 177.983 235.517C177.507 236.342 177.391 237.261 177.636 238.275L176.419 238.171C176.29 237.665 176.278 237.109 176.381 236.5C176.477 235.887 176.681 235.31 176.993 234.768C177.502 233.887 178.094 233.329 178.769 233.093C179.448 232.85 180.164 232.945 180.915 233.379C181.425 233.673 181.849 234.085 182.19 234.616C182.535 235.138 182.83 235.821 183.077 236.664L184.077 240.054L186.373 236.077L187.428 236.686L184.222 242.239Z" fill="#808080"/>
<path d="M220.593 266.703C220.019 267.697 219.205 268.24 218.15 268.332C217.091 268.41 215.855 268.041 214.44 267.224C213.002 266.394 212.064 265.507 211.627 264.566C211.187 263.611 211.254 262.636 211.828 261.642C212.406 260.64 213.217 260.095 214.259 260.007C215.293 259.914 216.526 260.281 217.956 261.107C219.379 261.928 220.318 262.821 220.775 263.785C221.228 264.736 221.167 265.709 220.593 266.703ZM219.551 266.101C219.905 265.487 219.898 264.874 219.529 264.262C219.161 263.65 218.398 263.011 217.242 262.343C216.086 261.676 215.159 261.34 214.461 261.336C213.76 261.319 213.23 261.622 212.87 262.244C212.516 262.858 212.519 263.469 212.879 264.076C213.24 264.683 213.995 265.318 215.142 265.981C216.298 266.648 217.233 266.989 217.947 267.002C218.662 267.016 219.196 266.715 219.551 266.101ZM224.791 259.433C224.226 260.411 223.575 261.054 222.837 261.361C222.104 261.66 221.362 261.592 220.61 261.158C220.085 260.855 219.72 260.461 219.515 259.976C219.306 259.478 219.264 258.964 219.388 258.432C218.985 258.738 218.542 258.908 218.059 258.941C217.568 258.97 217.092 258.852 216.631 258.586C215.92 258.175 215.514 257.591 215.413 256.832C215.312 256.073 215.516 255.253 216.025 254.372C216.538 253.483 217.149 252.893 217.856 252.601C218.563 252.308 219.273 252.368 219.984 252.778C220.445 253.044 220.783 253.401 220.999 253.849C221.219 254.289 221.293 254.757 221.222 255.255C221.625 254.874 222.092 254.653 222.623 254.593C223.145 254.528 223.669 254.647 224.194 254.95C224.946 255.384 225.373 255.998 225.476 256.79C225.584 257.574 225.355 258.455 224.791 259.433ZM219.856 256.584C220.169 256.043 220.286 255.55 220.208 255.106C220.127 254.65 219.864 254.293 219.419 254.037C218.983 253.785 218.551 253.74 218.123 253.902C217.7 254.057 217.332 254.405 217.019 254.946C216.706 255.488 216.589 255.98 216.667 256.424C216.745 256.868 217.002 257.216 217.438 257.468C217.883 257.724 218.321 257.778 218.752 257.628C219.175 257.474 219.543 257.126 219.856 256.584ZM223.796 258.859C224.538 257.574 224.416 256.647 223.43 256.077C222.452 255.513 221.592 255.873 220.85 257.158C220.486 257.789 220.33 258.34 220.381 258.811C220.437 259.274 220.711 259.648 221.204 259.933C222.19 260.502 223.054 260.144 223.796 258.859ZM224.529 253.307L223.535 252.733L225.551 249.241L226.545 249.815L224.529 253.307ZM230.375 249.509L229.441 248.97L228.031 244.357C227.831 243.714 227.607 243.207 227.357 242.836C227.112 242.458 226.812 242.166 226.456 241.961C225.535 241.429 224.761 241.704 224.136 242.787C223.66 243.612 223.544 244.531 223.789 245.545L222.572 245.441C222.443 244.935 222.431 244.378 222.534 243.77C222.629 243.157 222.833 242.579 223.146 242.038C223.655 241.157 224.246 240.599 224.921 240.363C225.601 240.12 226.316 240.215 227.068 240.649C227.577 240.943 228.002 241.355 228.342 241.886C228.687 242.408 228.983 243.091 229.229 243.933L230.23 247.324L232.526 243.347L233.581 243.956L230.375 249.509ZM234.572 242.239L233.639 241.7L232.228 237.087C232.028 236.444 231.804 235.937 231.554 235.566C231.309 235.188 231.009 234.896 230.653 234.691C229.732 234.159 228.959 234.434 228.333 235.517C227.857 236.342 227.741 237.261 227.986 238.275L226.769 238.171C226.64 237.665 226.628 237.109 226.731 236.5C226.827 235.887 227.031 235.31 227.343 234.768C227.852 233.887 228.444 233.329 229.119 233.093C229.798 232.85 230.514 232.945 231.265 233.379C231.775 233.673 232.199 234.085 232.54 234.616C232.885 235.138 233.18 235.821 233.427 236.664L234.427 240.054L236.723 236.077L237.778 236.686L234.572 242.239Z" fill="#808080"/>
<path d="M270.943 266.703C270.369 267.697 269.555 268.24 268.5 268.332C267.441 268.41 266.205 268.041 264.79 267.224C263.352 266.394 262.414 265.507 261.977 264.566C261.537 263.611 261.604 262.636 262.178 261.642C262.756 260.64 263.567 260.095 264.609 260.007C265.643 259.914 266.876 260.281 268.306 261.107C269.729 261.928 270.668 262.821 271.125 263.785C271.578 264.736 271.517 265.709 270.943 266.703ZM269.901 266.101C270.255 265.487 270.248 264.874 269.879 264.262C269.511 263.65 268.748 263.011 267.592 262.343C266.436 261.676 265.509 261.34 264.811 261.336C264.11 261.319 263.58 261.622 263.22 262.244C262.866 262.858 262.869 263.469 263.229 264.076C263.59 264.683 264.345 265.318 265.492 265.981C266.648 266.648 267.583 266.989 268.297 267.002C269.012 267.016 269.546 266.715 269.901 266.101ZM275.141 259.433C274.576 260.411 273.925 261.054 273.187 261.361C272.454 261.66 271.712 261.592 270.96 261.158C270.435 260.855 270.07 260.461 269.865 259.976C269.656 259.478 269.614 258.964 269.738 258.432C269.335 258.738 268.892 258.908 268.409 258.941C267.918 258.97 267.442 258.852 266.981 258.586C266.27 258.175 265.864 257.591 265.763 256.832C265.662 256.073 265.866 255.253 266.375 254.372C266.888 253.483 267.499 252.893 268.206 252.601C268.913 252.308 269.623 252.368 270.334 252.778C270.795 253.044 271.133 253.401 271.349 253.849C271.569 254.289 271.643 254.757 271.572 255.255C271.975 254.874 272.442 254.653 272.973 254.593C273.495 254.528 274.019 254.647 274.544 254.95C275.296 255.384 275.723 255.998 275.826 256.79C275.934 257.574 275.705 258.455 275.141 259.433ZM270.206 256.584C270.519 256.043 270.636 255.55 270.558 255.106C270.477 254.65 270.214 254.293 269.769 254.037C269.333 253.785 268.901 253.74 268.473 253.902C268.05 254.057 267.682 254.405 267.369 254.946C267.056 255.488 266.939 255.98 267.017 256.424C267.095 256.868 267.352 257.216 267.788 257.468C268.233 257.724 268.671 257.778 269.102 257.628C269.525 257.474 269.893 257.126 270.206 256.584ZM274.146 258.859C274.888 257.574 274.766 256.647 273.78 256.077C272.802 255.513 271.942 255.873 271.2 257.158C270.836 257.789 270.68 258.34 270.731 258.811C270.787 259.274 271.061 259.648 271.554 259.933C272.54 260.502 273.404 260.144 274.146 258.859ZM274.879 253.307L273.885 252.733L275.901 249.241L276.895 249.815L274.879 253.307ZM280.725 249.509L279.791 248.97L278.381 244.357C278.181 243.714 277.957 243.207 277.707 242.836C277.462 242.458 277.162 242.166 276.806 241.961C275.885 241.429 275.111 241.704 274.486 242.787C274.01 243.612 273.894 244.531 274.139 245.545L272.922 245.441C272.793 244.935 272.781 244.378 272.884 243.77C272.979 243.157 273.183 242.579 273.496 242.038C274.005 241.157 274.596 240.599 275.271 240.363C275.951 240.12 276.666 240.215 277.418 240.649C277.927 240.943 278.352 241.355 278.692 241.886C279.037 242.408 279.333 243.091 279.579 243.933L280.58 247.324L282.876 243.347L283.931 243.956L280.725 249.509ZM284.922 242.239L283.989 241.7L282.578 237.087C282.378 236.444 282.154 235.937 281.904 235.566C281.659 235.188 281.359 234.896 281.003 234.691C280.082 234.159 279.309 234.434 278.683 235.517C278.207 236.342 278.091 237.261 278.336 238.275L277.119 238.171C276.99 237.665 276.978 237.109 277.081 236.5C277.177 235.887 277.381 235.31 277.693 234.768C278.202 233.887 278.794 233.329 279.469 233.093C280.148 232.85 280.864 232.945 281.615 233.379C282.125 233.673 282.549 234.085 282.89 234.616C283.235 235.138 283.53 235.821 283.777 236.664L284.777 240.054L287.073 236.077L288.128 236.686L284.922 242.239Z" fill="#808080"/>
<path d="M321.293 266.703C320.719 267.697 319.905 268.24 318.85 268.332C317.791 268.41 316.555 268.041 315.14 267.224C313.702 266.394 312.764 265.507 312.327 264.566C311.887 263.611 311.954 262.636 312.528 261.642C313.106 260.64 313.917 260.095 314.959 260.007C315.993 259.914 317.226 260.281 318.656 261.107C320.079 261.928 321.018 262.821 321.475 263.785C321.928 264.736 321.867 265.709 321.293 266.703ZM320.251 266.101C320.605 265.487 320.598 264.874 320.229 264.262C319.861 263.65 319.098 263.011 317.942 262.343C316.786 261.676 315.859 261.34 315.161 261.336C314.46 261.319 313.93 261.622 313.57 262.244C313.216 262.858 313.219 263.469 313.579 264.076C313.94 264.683 314.695 265.318 315.842 265.981C316.998 266.648 317.933 266.989 318.647 267.002C319.362 267.016 319.896 266.715 320.251 266.101ZM325.491 259.433C324.926 260.411 324.275 261.054 323.537 261.361C322.804 261.66 322.062 261.592 321.31 261.158C320.785 260.855 320.42 260.461 320.215 259.976C320.006 259.478 319.964 258.964 320.088 258.432C319.685 258.738 319.242 258.908 318.759 258.941C318.268 258.97 317.792 258.852 317.331 258.586C316.62 258.175 316.214 257.591 316.113 256.832C316.012 256.073 316.216 255.253 316.725 254.372C317.238 253.483 317.849 252.893 318.556 252.601C319.263 252.308 319.973 252.368 320.684 252.778C321.145 253.044 321.483 253.401 321.699 253.849C321.919 254.289 321.993 254.757 321.922 255.255C322.325 254.874 322.792 254.653 323.323 254.593C323.845 254.528 324.369 254.647 324.894 254.95C325.646 255.384 326.073 255.998 326.176 256.79C326.284 257.574 326.055 258.455 325.491 259.433ZM320.556 256.584C320.869 256.043 320.986 255.55 320.908 255.106C320.827 254.65 320.564 254.293 320.119 254.037C319.683 253.785 319.251 253.74 318.823 253.902C318.4 254.057 318.032 254.405 317.719 254.946C317.406 255.488 317.289 255.98 317.367 256.424C317.445 256.868 317.702 257.216 318.138 257.468C318.583 257.724 319.021 257.778 319.452 257.628C319.875 257.474 320.243 257.126 320.556 256.584ZM324.497 258.859C325.239 257.574 325.116 256.647 324.13 256.077C323.152 255.513 322.292 255.873 321.55 257.158C321.186 257.789 321.03 258.34 321.081 258.811C321.137 259.274 321.411 259.648 321.904 259.933C322.89 260.502 323.755 260.144 324.497 258.859ZM325.229 253.307L324.235 252.733L326.251 249.241L327.245 249.815L325.229 253.307ZM331.075 249.509L330.141 248.97L328.731 244.357C328.531 243.714 328.307 243.207 328.057 242.836C327.812 242.458 327.512 242.166 327.156 241.961C326.235 241.429 325.461 241.704 324.836 242.787C324.36 243.612 324.244 244.531 324.489 245.545L323.272 245.441C323.143 244.935 323.131 244.378 323.234 243.77C323.329 243.157 323.533 242.579 323.846 242.038C324.355 241.157 324.946 240.599 325.621 240.363C326.301 240.12 327.016 240.215 327.768 240.649C328.277 240.943 328.702 241.355 329.042 241.886C329.387 242.408 329.683 243.091 329.929 243.933L330.93 247.324L333.226 243.347L334.281 243.956L331.075 249.509ZM335.272 242.239L334.339 241.7L332.928 237.087C332.728 236.444 332.504 235.937 332.254 235.566C332.009 235.188 331.709 234.896 331.353 234.691C330.432 234.159 329.659 234.434 329.033 235.517C328.557 236.342 328.441 237.261 328.686 238.275L327.469 238.171C327.34 237.665 327.328 237.109 327.431 236.5C327.527 235.887 327.731 235.31 328.043 234.768C328.552 233.887 329.144 233.329 329.819 233.093C330.498 232.85 331.214 232.945 331.965 233.379C332.475 233.673 332.899 234.085 333.24 234.616C333.585 235.138 333.88 235.821 334.127 236.664L335.127 240.054L337.423 236.077L338.478 236.686L335.272 242.239Z" fill="#808080"/>
<path d="M371.643 266.703C371.069 267.697 370.255 268.24 369.2 268.332C368.141 268.41 366.905 268.041 365.49 267.224C364.052 266.394 363.114 265.507 362.677 264.566C362.237 263.611 362.304 262.636 362.878 261.642C363.456 260.64 364.267 260.095 365.309 260.007C366.343 259.914 367.576 260.281 369.006 261.107C370.429 261.928 371.368 262.821 371.825 263.785C372.278 264.736 372.217 265.709 371.643 266.703ZM370.601 266.101C370.955 265.487 370.948 264.874 370.579 264.262C370.211 263.65 369.448 263.011 368.292 262.343C367.136 261.676 366.209 261.34 365.511 261.336C364.81 261.319 364.28 261.622 363.92 262.244C363.566 262.858 363.569 263.469 363.929 264.076C364.29 264.683 365.045 265.318 366.192 265.981C367.348 266.648 368.283 266.989 368.997 267.002C369.712 267.016 370.246 266.715 370.601 266.101ZM375.841 259.433C375.276 260.411 374.625 261.054 373.887 261.361C373.154 261.66 372.412 261.592 371.66 261.158C371.135 260.855 370.77 260.461 370.565 259.976C370.356 259.478 370.314 258.964 370.438 258.432C370.035 258.738 369.592 258.908 369.109 258.941C368.618 258.97 368.142 258.852 367.681 258.586C366.97 258.175 366.564 257.591 366.463 256.832C366.362 256.073 366.566 255.253 367.075 254.372C367.588 253.483 368.199 252.893 368.906 252.601C369.613 252.308 370.323 252.368 371.034 252.778C371.495 253.044 371.833 253.401 372.049 253.849C372.269 254.289 372.343 254.757 372.272 255.255C372.675 254.874 373.142 254.653 373.673 254.593C374.195 254.528 374.719 254.647 375.244 254.95C375.996 255.384 376.423 255.998 376.526 256.79C376.634 257.574 376.405 258.455 375.841 259.433ZM370.906 256.584C371.219 256.043 371.336 255.55 371.258 255.106C371.177 254.65 370.914 254.293 370.469 254.037C370.033 253.785 369.601 253.74 369.173 253.902C368.75 254.057 368.382 254.405 368.069 254.946C367.756 255.488 367.639 255.98 367.717 256.424C367.795 256.868 368.052 257.216 368.488 257.468C368.933 257.724 369.371 257.778 369.802 257.628C370.225 257.474 370.593 257.126 370.906 256.584ZM374.847 258.859C375.589 257.574 375.466 256.647 374.48 256.077C373.502 255.513 372.642 255.873 371.9 257.158C371.536 257.789 371.38 258.34 371.431 258.811C371.487 259.274 371.761 259.648 372.254 259.933C373.24 260.502 374.105 260.144 374.847 258.859ZM375.579 253.307L374.585 252.733L376.601 249.241L377.595 249.815L375.579 253.307ZM381.425 249.509L380.491 248.97L379.081 244.357C378.881 243.714 378.657 243.207 378.407 242.836C378.162 242.458 377.862 242.166 377.506 241.961C376.585 241.429 375.811 241.704 375.186 242.787C374.71 243.612 374.594 244.531 374.839 245.545L373.622 245.441C373.493 244.935 373.481 244.378 373.584 243.77C373.679 243.157 373.883 242.579 374.196 242.038C374.705 241.157 375.296 240.599 375.971 240.363C376.651 240.12 377.366 240.215 378.118 240.649C378.627 240.943 379.052 241.355 379.392 241.886C379.737 242.408 380.033 243.091 380.279 243.933L381.28 247.324L383.576 243.347L384.631 243.956L381.425 249.509ZM385.622 242.239L384.689 241.7L383.278 237.087C383.078 236.444 382.854 235.937 382.604 235.566C382.359 235.188 382.059 234.896 381.703 234.691C380.782 234.159 380.009 234.434 379.383 235.517C378.907 236.342 378.791 237.261 379.036 238.275L377.819 238.171C377.69 237.665 377.678 237.109 377.781 236.5C377.877 235.887 378.081 235.31 378.393 234.768C378.902 233.887 379.494 233.329 380.169 233.093C380.848 232.85 381.564 232.945 382.315 233.379C382.825 233.673 383.249 234.085 383.59 234.616C383.935 235.138 384.23 235.821 384.477 236.664L385.477 240.054L387.773 236.077L388.828 236.686L385.622 242.239Z" fill="#808080"/>
<path d="M421.993 266.703C421.419 267.697 420.605 268.24 419.55 268.332C418.491 268.41 417.255 268.041 415.84 267.224C414.402 266.394 413.464 265.507 413.027 264.566C412.587 263.611 412.654 262.636 413.228 261.642C413.806 260.64 414.617 260.095 415.659 260.007C416.693 259.914 417.926 260.281 419.356 261.107C420.779 261.928 421.718 262.821 422.175 263.785C422.628 264.736 422.567 265.709 421.993 266.703ZM420.951 266.101C421.305 265.487 421.298 264.874 420.929 264.262C420.561 263.65 419.798 263.011 418.642 262.343C417.486 261.676 416.559 261.34 415.861 261.336C415.16 261.319 414.63 261.622 414.27 262.244C413.916 262.858 413.919 263.469 414.279 264.076C414.64 264.683 415.395 265.318 416.542 265.981C417.698 266.648 418.633 266.989 419.347 267.002C420.062 267.016 420.596 266.715 420.951 266.101ZM426.191 259.433C425.626 260.411 424.975 261.054 424.237 261.361C423.504 261.66 422.762 261.592 422.01 261.158C421.485 260.855 421.12 260.461 420.915 259.976C420.706 259.478 420.664 258.964 420.788 258.432C420.385 258.738 419.942 258.908 419.459 258.941C418.968 258.97 418.492 258.852 418.031 258.586C417.32 258.175 416.914 257.591 416.813 256.832C416.712 256.073 416.916 255.253 417.425 254.372C417.938 253.483 418.549 252.893 419.256 252.601C419.964 252.308 420.673 252.368 421.384 252.778C421.845 253.044 422.183 253.401 422.399 253.849C422.619 254.289 422.693 254.757 422.622 255.255C423.025 254.874 423.492 254.653 424.023 254.593C424.545 254.528 425.069 254.647 425.594 254.95C426.346 255.384 426.773 255.998 426.876 256.79C426.984 257.574 426.755 258.455 426.191 259.433ZM421.256 256.584C421.569 256.043 421.686 255.55 421.608 255.106C421.527 254.65 421.264 254.293 420.819 254.037C420.383 253.785 419.951 253.74 419.523 253.902C419.1 254.057 418.732 254.405 418.419 254.946C418.106 255.488 417.989 255.98 418.067 256.424C418.145 256.868 418.402 257.216 418.838 257.468C419.283 257.724 419.721 257.778 420.152 257.628C420.575 257.474 420.943 257.126 421.256 256.584ZM425.197 258.859C425.939 257.574 425.816 256.647 424.83 256.077C423.852 255.513 422.992 255.873 422.25 257.158C421.886 257.789 421.73 258.34 421.781 258.811C421.837 259.274 422.111 259.648 422.604 259.933C423.59 260.502 424.455 260.144 425.197 258.859ZM425.929 253.307L424.935 252.733L426.951 249.241L427.945 249.815L425.929 253.307ZM431.775 249.509L430.841 248.97L429.431 244.357C429.231 243.714 429.007 243.207 428.757 242.836C428.512 242.458 428.212 242.166 427.856 241.961C426.935 241.429 426.161 241.704 425.536 242.787C425.06 243.612 424.944 244.531 425.189 245.545L423.972 245.441C423.843 244.935 423.831 244.378 423.934 243.77C424.029 243.157 424.233 242.579 424.546 242.038C425.055 241.157 425.646 240.599 426.321 240.363C427.001 240.12 427.716 240.215 428.468 240.649C428.977 240.943 429.402 241.355 429.742 241.886C430.087 242.408 430.383 243.091 430.629 243.933L431.63 247.324L433.926 243.347L434.981 243.956L431.775 249.509ZM435.972 242.239L435.039 241.7L433.628 237.087C433.428 236.444 433.204 235.937 432.954 235.566C432.709 235.188 432.409 234.896 432.053 234.691C431.132 234.159 430.359 234.434 429.733 235.517C429.257 236.342 429.141 237.261 429.386 238.275L428.169 238.171C428.04 237.665 428.028 237.109 428.131 236.5C428.227 235.887 428.431 235.31 428.743 234.768C429.252 233.887 429.844 233.329 430.519 233.093C431.198 232.85 431.914 232.945 432.665 233.379C433.175 233.673 433.599 234.085 433.94 234.616C434.285 235.138 434.58 235.821 434.827 236.664L435.827 240.054L438.123 236.077L439.178 236.686L435.972 242.239Z" fill="#808080"/>
<path d="M472.343 266.703C471.769 267.697 470.955 268.24 469.9 268.332C468.841 268.41 467.605 268.041 466.19 267.224C464.752 266.394 463.814 265.507 463.377 264.566C462.937 263.611 463.004 262.636 463.578 261.642C464.156 260.64 464.967 260.095 466.009 260.007C467.043 259.914 468.276 260.281 469.706 261.107C471.129 261.928 472.068 262.821 472.525 263.785C472.978 264.736 472.917 265.709 472.343 266.703ZM471.301 266.101C471.655 265.487 471.648 264.874 471.279 264.262C470.911 263.65 470.148 263.011 468.992 262.343C467.836 261.676 466.91 261.34 466.211 261.336C465.51 261.319 464.98 261.622 464.62 262.244C464.266 262.858 464.269 263.469 464.629 264.076C464.99 264.683 465.745 265.318 466.892 265.981C468.048 266.648 468.983 266.989 469.697 267.002C470.412 267.016 470.946 266.715 471.301 266.101ZM476.541 259.433C475.976 260.411 475.325 261.054 474.587 261.361C473.854 261.66 473.112 261.592 472.36 261.158C471.835 260.855 471.47 260.461 471.265 259.976C471.056 259.478 471.014 258.964 471.138 258.432C470.735 258.738 470.292 258.908 469.809 258.941C469.318 258.97 468.842 258.852 468.381 258.586C467.67 258.175 467.264 257.591 467.163 256.832C467.062 256.073 467.266 255.253 467.775 254.372C468.288 253.483 468.899 252.893 469.606 252.601C470.314 252.308 471.023 252.368 471.734 252.778C472.195 253.044 472.533 253.401 472.749 253.849C472.969 254.289 473.043 254.757 472.972 255.255C473.375 254.874 473.842 254.653 474.373 254.593C474.895 254.528 475.419 254.647 475.944 254.95C476.696 255.384 477.123 255.998 477.226 256.79C477.334 257.574 477.105 258.455 476.541 259.433ZM471.606 256.584C471.919 256.043 472.036 255.55 471.958 255.106C471.877 254.65 471.614 254.293 471.169 254.037C470.733 253.785 470.301 253.74 469.873 253.902C469.45 254.057 469.082 254.405 468.769 254.946C468.456 255.488 468.339 255.98 468.417 256.424C468.495 256.868 468.752 257.216 469.188 257.468C469.633 257.724 470.071 257.778 470.502 257.628C470.925 257.474 471.293 257.126 471.606 256.584ZM475.547 258.859C476.289 257.574 476.166 256.647 475.18 256.077C474.202 255.513 473.342 255.873 472.6 257.158C472.236 257.789 472.08 258.34 472.131 258.811C472.187 259.274 472.461 259.648 472.954 259.933C473.94 260.502 474.805 260.144 475.547 258.859ZM476.279 253.307L475.285 252.733L477.301 249.241L478.295 249.815L476.279 253.307ZM482.125 249.509L481.191 248.97L479.781 244.357C479.581 243.714 479.357 243.207 479.107 242.836C478.862 242.458 478.562 242.166 478.206 241.961C477.285 241.429 476.511 241.704 475.886 242.787C475.41 243.612 475.294 244.531 475.539 245.545L474.322 245.441C474.193 244.935 474.181 244.378 474.284 243.77C474.379 243.157 474.583 242.579 474.896 242.038C475.405 241.157 475.996 240.599 476.671 240.363C477.351 240.12 478.066 240.215 478.818 240.649C479.327 240.943 479.752 241.355 480.092 241.886C480.437 242.408 480.733 243.091 480.979 243.933L481.98 247.324L484.276 243.347L485.331 243.956L482.125 249.509ZM486.322 242.239L485.389 241.7L483.978 237.087C483.778 236.444 483.554 235.937 483.304 235.566C483.059 235.188 482.759 234.896 482.403 234.691C481.482 234.159 480.709 234.434 480.083 235.517C479.607 236.342 479.491 237.261 479.736 238.275L478.519 238.171C478.39 237.665 478.378 237.109 478.481 236.5C478.577 235.887 478.781 235.31 479.093 234.768C479.602 233.887 480.194 233.329 480.869 233.093C481.548 232.85 482.264 232.945 483.015 233.379C483.525 233.673 483.949 234.085 484.29 234.616C484.635 235.138 484.93 235.821 485.177 236.664L486.177 240.054L488.473 236.077L489.528 236.686L486.322 242.239Z" fill="#808080"/>
<path d="M522.693 266.703C522.119 267.697 521.305 268.24 520.25 268.332C519.191 268.41 517.955 268.041 516.54 267.224C515.102 266.394 514.164 265.507 513.727 264.566C513.287 263.611 513.354 262.636 513.928 261.642C514.506 260.64 515.317 260.095 516.359 260.007C517.393 259.914 518.626 260.281 520.056 261.107C521.479 261.928 522.418 262.821 522.875 263.785C523.328 264.736 523.267 265.709 522.693 266.703ZM521.651 266.101C522.005 265.487 521.998 264.874 521.629 264.262C521.261 263.65 520.498 263.011 519.342 262.343C518.186 261.676 517.26 261.34 516.561 261.336C515.86 261.319 515.33 261.622 514.97 262.244C514.616 262.858 514.619 263.469 514.979 264.076C515.34 264.683 516.095 265.318 517.242 265.981C518.398 266.648 519.333 266.989 520.047 267.002C520.762 267.016 521.296 266.715 521.651 266.101ZM526.891 259.433C526.326 260.411 525.675 261.054 524.937 261.361C524.204 261.66 523.462 261.592 522.71 261.158C522.185 260.855 521.82 260.461 521.615 259.976C521.406 259.478 521.364 258.964 521.488 258.432C521.085 258.738 520.642 258.908 520.159 258.941C519.668 258.97 519.192 258.852 518.731 258.586C518.02 258.175 517.614 257.591 517.513 256.832C517.412 256.073 517.616 255.253 518.125 254.372C518.638 253.483 519.249 252.893 519.956 252.601C520.664 252.308 521.373 252.368 522.084 252.778C522.545 253.044 522.883 253.401 523.099 253.849C523.319 254.289 523.393 254.757 523.322 255.255C523.725 254.874 524.192 254.653 524.723 254.593C525.245 254.528 525.769 254.647 526.294 254.95C527.046 255.384 527.473 255.998 527.576 256.79C527.684 257.574 527.455 258.455 526.891 259.433ZM521.956 256.584C522.269 256.043 522.386 255.55 522.308 255.106C522.227 254.65 521.964 254.293 521.519 254.037C521.083 253.785 520.651 253.74 520.223 253.902C519.8 254.057 519.432 254.405 519.119 254.946C518.806 255.488 518.689 255.98 518.767 256.424C518.845 256.868 519.102 257.216 519.538 257.468C519.983 257.724 520.421 257.778 520.852 257.628C521.275 257.474 521.643 257.126 521.956 256.584ZM525.897 258.859C526.639 257.574 526.516 256.647 525.53 256.077C524.552 255.513 523.692 255.873 522.95 257.158C522.586 257.789 522.43 258.34 522.481 258.811C522.537 259.274 522.811 259.648 523.304 259.933C524.29 260.502 525.155 260.144 525.897 258.859ZM526.629 253.307L525.635 252.733L527.651 249.241L528.645 249.815L526.629 253.307ZM532.475 249.509L531.541 248.97L530.131 244.357C529.931 243.714 529.707 243.207 529.457 242.836C529.212 242.458 528.912 242.166 528.556 241.961C527.635 241.429 526.861 241.704 526.236 242.787C525.76 243.612 525.644 244.531 525.889 245.545L524.672 245.441C524.543 244.935 524.531 244.378 524.634 243.77C524.729 243.157 524.933 242.579 525.246 242.038C525.755 241.157 526.346 240.599 527.021 240.363C527.701 240.12 528.416 240.215 529.168 240.649C529.677 240.943 530.102 241.355 530.442 241.886C530.787 242.408 531.083 243.091 531.329 243.933L532.33 247.324L534.626 243.347L535.681 243.956L532.475 249.509ZM536.672 242.239L535.739 241.7L534.328 237.087C534.128 236.444 533.904 235.937 533.654 235.566C533.409 235.188 533.109 234.896 532.753 234.691C531.832 234.159 531.059 234.434 530.433 235.517C529.957 236.342 529.841 237.261 530.086 238.275L528.869 238.171C528.74 237.665 528.728 237.109 528.831 236.5C528.927 235.887 529.131 235.31 529.443 234.768C529.952 233.887 530.544 233.329 531.219 233.093C531.898 232.85 532.614 232.945 533.365 233.379C533.875 233.673 534.299 234.085 534.64 234.616C534.985 235.138 535.28 235.821 535.527 236.664L536.527 240.054L538.823 236.077L539.878 236.686L536.672 242.239Z" fill="#808080"/>
<path d="M573.043 266.703C572.469 267.697 571.655 268.24 570.6 268.332C569.541 268.41 568.305 268.041 566.89 267.224C565.452 266.394 564.514 265.507 564.077 264.566C563.637 263.611 563.704 262.636 564.278 261.642C564.856 260.64 565.667 260.095 566.709 260.007C567.743 259.914 568.976 260.281 570.406 261.107C571.829 261.928 572.768 262.821 573.225 263.785C573.678 264.736 573.617 265.709 573.043 266.703ZM572.001 266.101C572.355 265.487 572.348 264.874 571.979 264.262C571.611 263.65 570.848 263.011 569.692 262.343C568.536 261.676 567.61 261.34 566.911 261.336C566.21 261.319 565.68 261.622 565.32 262.244C564.966 262.858 564.969 263.469 565.329 264.076C565.69 264.683 566.445 265.318 567.592 265.981C568.748 266.648 569.683 266.989 570.397 267.002C571.112 267.016 571.646 266.715 572.001 266.101ZM577.241 259.433C576.676 260.411 576.025 261.054 575.287 261.361C574.554 261.66 573.812 261.592 573.06 261.158C572.535 260.855 572.17 260.461 571.965 259.976C571.756 259.478 571.714 258.964 571.838 258.432C571.435 258.738 570.992 258.908 570.509 258.941C570.018 258.97 569.542 258.852 569.081 258.586C568.37 258.175 567.964 257.591 567.863 256.832C567.762 256.073 567.966 255.253 568.475 254.372C568.988 253.483 569.599 252.893 570.306 252.601C571.014 252.308 571.723 252.368 572.434 252.778C572.895 253.044 573.233 253.401 573.449 253.849C573.669 254.289 573.743 254.757 573.672 255.255C574.075 254.874 574.542 254.653 575.073 254.593C575.595 254.528 576.119 254.647 576.644 254.95C577.396 255.384 577.823 255.998 577.926 256.79C578.034 257.574 577.805 258.455 577.241 259.433ZM572.306 256.584C572.619 256.043 572.736 255.55 572.658 255.106C572.577 254.65 572.314 254.293 571.869 254.037C571.433 253.785 571.001 253.74 570.573 253.902C570.15 254.057 569.782 254.405 569.469 254.946C569.156 255.488 569.039 255.98 569.117 256.424C569.195 256.868 569.452 257.216 569.888 257.468C570.333 257.724 570.771 257.778 571.202 257.628C571.626 257.474 571.993 257.126 572.306 256.584ZM576.247 258.859C576.989 257.574 576.866 256.647 575.88 256.077C574.902 255.513 574.042 255.873 573.3 257.158C572.936 257.789 572.78 258.34 572.831 258.811C572.887 259.274 573.161 259.648 573.654 259.933C574.64 260.502 575.505 260.144 576.247 258.859ZM576.979 253.307L575.985 252.733L578.001 249.241L578.995 249.815L576.979 253.307ZM582.825 249.509L581.891 248.97L580.481 244.357C580.281 243.714 580.057 243.207 579.807 242.836C579.562 242.458 579.262 242.166 578.906 241.961C577.985 241.429 577.211 241.704 576.586 242.787C576.11 243.612 575.994 244.531 576.239 245.545L575.022 245.441C574.893 244.935 574.881 244.378 574.984 243.77C575.079 243.157 575.283 242.579 575.596 242.038C576.105 241.157 576.696 240.599 577.371 240.363C578.051 240.12 578.766 240.215 579.518 240.649C580.027 240.943 580.452 241.355 580.792 241.886C581.137 242.408 581.433 243.091 581.679 243.933L582.68 247.324L584.976 243.347L586.031 243.956L582.825 249.509ZM587.022 242.239L586.089 241.7L584.678 237.087C584.478 236.444 584.254 235.937 584.004 235.566C583.759 235.188 583.459 234.896 583.103 234.691C582.182 234.159 581.409 234.434 580.783 235.517C580.307 236.342 580.191 237.261 580.436 238.275L579.219 238.171C579.09 237.665 579.078 237.109 579.181 236.5C579.277 235.887 579.481 235.31 579.793 234.768C580.302 233.887 580.894 233.329 581.569 233.093C582.248 232.85 582.964 232.945 583.715 233.379C584.225 233.673 584.649 234.085 584.99 234.616C585.335 235.138 585.63 235.821 585.877 236.664L586.877 240.054L589.173 236.077L590.228 236.686L587.022 242.239Z" fill="#808080"/>
<path d="M623.393 266.703C622.819 267.697 622.005 268.24 620.95 268.332C619.891 268.41 618.655 268.041 617.24 267.224C615.802 266.394 614.864 265.507 614.427 264.566C613.987 263.611 614.054 262.636 614.628 261.642C615.206 260.64 616.017 260.095 617.059 260.007C618.093 259.914 619.326 260.281 620.756 261.107C622.179 261.928 623.118 262.821 623.575 263.785C624.028 264.736 623.967 265.709 623.393 266.703ZM622.351 266.101C622.705 265.487 622.698 264.874 622.329 264.262C621.961 263.65 621.198 263.011 620.042 262.343C618.886 261.676 617.96 261.34 617.261 261.336C616.56 261.319 616.03 261.622 615.67 262.244C615.316 262.858 615.319 263.469 615.679 264.076C616.04 264.683 616.795 265.318 617.942 265.981C619.098 266.648 620.033 266.989 620.747 267.002C621.462 267.016 621.996 266.715 622.351 266.101ZM627.591 259.433C627.026 260.411 626.375 261.054 625.637 261.361C624.904 261.66 624.162 261.592 623.41 261.158C622.885 260.855 622.52 260.461 622.315 259.976C622.106 259.478 622.064 258.964 622.188 258.432C621.785 258.738 621.342 258.908 620.859 258.941C620.368 258.97 619.892 258.852 619.431 258.586C618.72 258.175 618.314 257.591 618.213 256.832C618.112 256.073 618.316 255.253 618.825 254.372C619.338 253.483 619.949 252.893 620.656 252.601C621.364 252.308 622.073 252.368 622.784 252.778C623.245 253.044 623.583 253.401 623.799 253.849C624.019 254.289 624.093 254.757 624.022 255.255C624.425 254.874 624.892 254.653 625.423 254.593C625.945 254.528 626.469 254.647 626.994 254.95C627.746 255.384 628.173 255.998 628.276 256.79C628.384 257.574 628.155 258.455 627.591 259.433ZM622.656 256.584C622.969 256.043 623.086 255.55 623.008 255.106C622.927 254.65 622.664 254.293 622.219 254.037C621.783 253.785 621.351 253.74 620.923 253.902C620.5 254.057 620.132 254.405 619.819 254.946C619.506 255.488 619.389 255.98 619.467 256.424C619.545 256.868 619.802 257.216 620.238 257.468C620.683 257.724 621.121 257.778 621.552 257.628C621.976 257.474 622.343 257.126 622.656 256.584ZM626.597 258.859C627.339 257.574 627.216 256.647 626.23 256.077C625.252 255.513 624.392 255.873 623.65 257.158C623.286 257.789 623.13 258.34 623.181 258.811C623.237 259.274 623.511 259.648 624.004 259.933C624.99 260.502 625.855 260.144 626.597 258.859ZM627.329 253.307L626.335 252.733L628.351 249.241L629.345 249.815L627.329 253.307ZM633.175 249.509L632.241 248.97L630.831 244.357C630.631 243.714 630.407 243.207 630.157 242.836C629.912 242.458 629.612 242.166 629.256 241.961C628.335 241.429 627.561 241.704 626.936 242.787C626.46 243.612 626.344 244.531 626.589 245.545L625.372 245.441C625.243 244.935 625.231 244.378 625.334 243.77C625.429 243.157 625.633 242.579 625.946 242.038C626.455 241.157 627.046 240.599 627.721 240.363C628.401 240.12 629.116 240.215 629.868 240.649C630.377 240.943 630.802 241.355 631.142 241.886C631.487 242.408 631.783 243.091 632.029 243.933L633.03 247.324L635.326 243.347L636.381 243.956L633.175 249.509ZM637.372 242.239L636.439 241.7L635.028 237.087C634.828 236.444 634.604 235.937 634.354 235.566C634.109 235.188 633.809 234.896 633.453 234.691C632.532 234.159 631.759 234.434 631.133 235.517C630.657 236.342 630.541 237.261 630.786 238.275L629.569 238.171C629.44 237.665 629.428 237.109 629.531 236.5C629.627 235.887 629.831 235.31 630.143 234.768C630.652 233.887 631.244 233.329 631.919 233.093C632.598 232.85 633.314 232.945 634.065 233.379C634.575 233.673 634.999 234.085 635.34 234.616C635.685 235.138 635.98 235.821 636.227 236.664L637.227 240.054L639.523 236.077L640.578 236.686L637.372 242.239Z" fill="#808080"/>
<path d="M673.743 266.703C673.169 267.697 672.355 268.24 671.3 268.332C670.241 268.41 669.005 268.041 667.59 267.224C666.152 266.394 665.214 265.507 664.777 264.566C664.337 263.611 664.404 262.636 664.978 261.642C665.556 260.64 666.367 260.095 667.409 260.007C668.443 259.914 669.676 260.281 671.106 261.107C672.529 261.928 673.468 262.821 673.925 263.785C674.378 264.736 674.317 265.709 673.743 266.703ZM672.701 266.101C673.055 265.487 673.048 264.874 672.679 264.262C672.311 263.65 671.548 263.011 670.392 262.343C669.236 261.676 668.309 261.34 667.611 261.336C666.91 261.319 666.38 261.622 666.02 262.244C665.666 262.858 665.669 263.469 666.029 264.076C666.39 264.683 667.145 265.318 668.292 265.981C669.448 266.648 670.383 266.989 671.097 267.002C671.812 267.016 672.346 266.715 672.701 266.101ZM677.941 259.433C677.376 260.411 676.725 261.054 675.987 261.361C675.254 261.66 674.512 261.592 673.76 261.158C673.235 260.855 672.87 260.461 672.665 259.976C672.456 259.478 672.414 258.964 672.538 258.432C672.135 258.738 671.692 258.908 671.209 258.941C670.718 258.97 670.242 258.852 669.781 258.586C669.07 258.175 668.664 257.591 668.563 256.832C668.462 256.073 668.666 255.253 669.175 254.372C669.688 253.483 670.299 252.893 671.006 252.601C671.714 252.308 672.423 252.368 673.134 252.778C673.595 253.044 673.933 253.401 674.149 253.849C674.369 254.289 674.443 254.757 674.372 255.255C674.775 254.874 675.242 254.653 675.773 254.593C676.295 254.528 676.819 254.647 677.344 254.95C678.096 255.384 678.523 255.998 678.626 256.79C678.734 257.574 678.505 258.455 677.941 259.433ZM673.006 256.584C673.319 256.043 673.436 255.55 673.358 255.106C673.277 254.65 673.014 254.293 672.569 254.037C672.133 253.785 671.701 253.74 671.273 253.902C670.85 254.057 670.482 254.405 670.169 254.946C669.856 255.488 669.739 255.98 669.817 256.424C669.895 256.868 670.152 257.216 670.588 257.468C671.033 257.724 671.471 257.778 671.902 257.628C672.325 257.474 672.693 257.126 673.006 256.584ZM676.947 258.859C677.689 257.574 677.566 256.647 676.58 256.077C675.602 255.513 674.742 255.873 674 257.158C673.636 257.789 673.48 258.34 673.531 258.811C673.587 259.274 673.861 259.648 674.354 259.933C675.34 260.502 676.205 260.144 676.947 258.859ZM677.679 253.307L676.685 252.733L678.701 249.241L679.695 249.815L677.679 253.307ZM683.525 249.509L682.591 248.97L681.181 244.357C680.981 243.714 680.757 243.207 680.507 242.836C680.262 242.458 679.962 242.166 679.606 241.961C678.685 241.429 677.911 241.704 677.286 242.787C676.81 243.612 676.694 244.531 676.939 245.545L675.722 245.441C675.593 244.935 675.581 244.378 675.684 243.77C675.779 243.157 675.983 242.579 676.296 242.038C676.805 241.157 677.396 240.599 678.071 240.363C678.751 240.12 679.466 240.215 680.218 240.649C680.727 240.943 681.152 241.355 681.492 241.886C681.837 242.408 682.133 243.091 682.379 243.933L683.38 247.324L685.676 243.347L686.731 243.956L683.525 249.509ZM687.722 242.239L686.789 241.7L685.378 237.087C685.178 236.444 684.954 235.937 684.704 235.566C684.459 235.188 684.159 234.896 683.803 234.691C682.882 234.159 682.109 234.434 681.483 235.517C681.007 236.342 680.891 237.261 681.136 238.275L679.919 238.171C679.79 237.665 679.778 237.109 679.881 236.5C679.977 235.887 680.181 235.31 680.493 234.768C681.002 233.887 681.594 233.329 682.269 233.093C682.948 232.85 683.664 232.945 684.415 233.379C684.925 233.673 685.349 234.085 685.69 234.616C686.035 235.138 686.33 235.821 686.577 236.664L687.577 240.054L689.873 236.077L690.928 236.686L687.722 242.239Z" fill="#808080"/>
<path d="M724.093 266.703C723.519 267.697 722.705 268.24 721.65 268.332C720.591 268.41 719.355 268.041 717.94 267.224C716.502 266.394 715.564 265.507 715.127 264.566C714.687 263.611 714.754 262.636 715.328 261.642C715.906 260.64 716.717 260.095 717.759 260.007C718.793 259.914 720.026 260.281 721.456 261.107C722.879 261.928 723.818 262.821 724.275 263.785C724.728 264.736 724.667 265.709 724.093 266.703ZM723.051 266.101C723.405 265.487 723.398 264.874 723.029 264.262C722.661 263.65 721.898 263.011 720.742 262.343C719.586 261.676 718.659 261.34 717.961 261.336C717.26 261.319 716.73 261.622 716.37 262.244C716.016 262.858 716.019 263.469 716.379 264.076C716.74 264.683 717.495 265.318 718.642 265.981C719.798 266.648 720.733 266.989 721.447 267.002C722.162 267.016 722.696 266.715 723.051 266.101ZM728.291 259.433C727.726 260.411 727.075 261.054 726.337 261.361C725.604 261.66 724.862 261.592 724.11 261.158C723.585 260.855 723.22 260.461 723.015 259.976C722.806 259.478 722.764 258.964 722.888 258.432C722.485 258.738 722.042 258.908 721.559 258.941C721.068 258.97 720.592 258.852 720.131 258.586C719.42 258.175 719.014 257.591 718.913 256.832C718.812 256.073 719.016 255.253 719.525 254.372C720.038 253.483 720.649 252.893 721.356 252.601C722.063 252.308 722.773 252.368 723.484 252.778C723.945 253.044 724.283 253.401 724.499 253.849C724.719 254.289 724.793 254.757 724.722 255.255C725.125 254.874 725.592 254.653 726.123 254.593C726.645 254.528 727.169 254.647 727.694 254.95C728.446 255.384 728.873 255.998 728.976 256.79C729.084 257.574 728.855 258.455 728.291 259.433ZM723.356 256.584C723.669 256.043 723.786 255.55 723.708 255.106C723.627 254.65 723.364 254.293 722.919 254.037C722.483 253.785 722.051 253.74 721.623 253.902C721.2 254.057 720.832 254.405 720.519 254.946C720.206 255.488 720.089 255.98 720.167 256.424C720.245 256.868 720.502 257.216 720.938 257.468C721.383 257.724 721.821 257.778 722.252 257.628C722.675 257.474 723.043 257.126 723.356 256.584ZM727.296 258.859C728.038 257.574 727.916 256.647 726.93 256.077C725.952 255.513 725.092 255.873 724.35 257.158C723.986 257.789 723.83 258.34 723.881 258.811C723.937 259.274 724.211 259.648 724.704 259.933C725.69 260.502 726.554 260.144 727.296 258.859ZM728.029 253.307L727.035 252.733L729.051 249.241L730.045 249.815L728.029 253.307ZM733.875 249.509L732.941 248.97L731.531 244.357C731.331 243.714 731.107 243.207 730.857 242.836C730.612 242.458 730.312 242.166 729.956 241.961C729.035 241.429 728.261 241.704 727.636 242.787C727.16 243.612 727.044 244.531 727.289 245.545L726.072 245.441C725.943 244.935 725.931 244.378 726.034 243.77C726.129 243.157 726.333 242.579 726.646 242.038C727.155 241.157 727.746 240.599 728.421 240.363C729.101 240.12 729.816 240.215 730.568 240.649C731.077 240.943 731.502 241.355 731.842 241.886C732.187 242.408 732.483 243.091 732.729 243.933L733.73 247.324L736.026 243.347L737.081 243.956L733.875 249.509ZM738.072 242.239L737.139 241.7L735.728 237.087C735.528 236.444 735.304 235.937 735.054 235.566C734.809 235.188 734.509 234.896 734.153 234.691C733.232 234.159 732.459 234.434 731.833 235.517C731.357 236.342 731.241 237.261 731.486 238.275L730.269 238.171C730.14 237.665 730.128 237.109 730.231 236.5C730.327 235.887 730.531 235.31 730.843 234.768C731.352 233.887 731.944 233.329 732.619 233.093C733.298 232.85 734.014 232.945 734.765 233.379C735.275 233.673 735.699 234.085 736.04 234.616C736.385 235.138 736.68 235.821 736.927 236.664L737.927 240.054L740.223 236.077L741.278 236.686L738.072 242.239Z" fill="#808080"/>
<path d="M774.443 266.703C773.869 267.697 773.055 268.24 772 268.332C770.941 268.41 769.705 268.041 768.29 267.224C766.852 266.394 765.914 265.507 765.477 264.566C765.037 263.611 765.103 262.636 765.677 261.642C766.256 260.64 767.067 260.095 768.109 260.007C769.143 259.914 770.376 260.281 771.806 261.107C773.229 261.928 774.168 262.821 774.625 263.785C775.078 264.736 775.017 265.709 774.443 266.703ZM773.401 266.101C773.755 265.487 773.748 264.874 773.379 264.262C773.01 263.65 772.248 263.011 771.092 262.343C769.936 261.676 769.009 261.34 768.311 261.336C767.61 261.319 767.08 261.622 766.72 262.244C766.366 262.858 766.369 263.469 766.729 264.076C767.09 264.683 767.844 265.318 768.992 265.981C770.148 266.648 771.083 266.989 771.797 267.002C772.512 267.016 773.046 266.715 773.401 266.101ZM778.641 259.433C778.076 260.411 777.425 261.054 776.687 261.361C775.954 261.66 775.212 261.592 774.46 261.158C773.935 260.855 773.57 260.461 773.364 259.976C773.156 259.478 773.114 258.964 773.238 258.432C772.835 258.738 772.392 258.908 771.909 258.941C771.418 258.97 770.942 258.852 770.481 258.586C769.77 258.175 769.364 257.591 769.263 256.832C769.162 256.073 769.366 255.253 769.875 254.372C770.388 253.483 770.998 252.893 771.706 252.601C772.413 252.308 773.123 252.368 773.834 252.778C774.295 253.044 774.633 253.401 774.849 253.849C775.069 254.289 775.143 254.757 775.072 255.255C775.475 254.874 775.942 254.653 776.472 254.593C776.995 254.528 777.519 254.647 778.044 254.95C778.796 255.384 779.223 255.998 779.326 256.79C779.434 257.574 779.205 258.455 778.641 259.433ZM773.706 256.584C774.019 256.043 774.136 255.55 774.058 255.106C773.977 254.65 773.714 254.293 773.269 254.037C772.833 253.785 772.401 253.74 771.973 253.902C771.55 254.057 771.182 254.405 770.869 254.946C770.556 255.488 770.439 255.98 770.517 256.424C770.595 256.868 770.852 257.216 771.288 257.468C771.733 257.724 772.171 257.778 772.602 257.628C773.025 257.474 773.393 257.126 773.706 256.584ZM777.646 258.859C778.388 257.574 778.266 256.647 777.28 256.077C776.302 255.513 775.442 255.873 774.7 257.158C774.336 257.789 774.18 258.34 774.231 258.811C774.287 259.274 774.561 259.648 775.054 259.933C776.04 260.502 776.904 260.144 777.646 258.859ZM778.379 253.307L777.385 252.733L779.401 249.241L780.395 249.815L778.379 253.307ZM784.225 249.509L783.291 248.97L781.881 244.357C781.681 243.714 781.457 243.207 781.207 242.836C780.962 242.458 780.662 242.166 780.306 241.961C779.385 241.429 778.611 241.704 777.986 242.787C777.51 243.612 777.394 244.531 777.639 245.545L776.422 245.441C776.293 244.935 776.281 244.378 776.384 243.77C776.479 243.157 776.683 242.579 776.996 242.038C777.505 241.157 778.096 240.599 778.771 240.363C779.451 240.12 780.166 240.215 780.918 240.649C781.427 240.943 781.852 241.355 782.192 241.886C782.537 242.408 782.833 243.091 783.079 243.933L784.08 247.324L786.376 243.347L787.431 243.956L784.225 249.509ZM788.422 242.239L787.488 241.7L786.078 237.087C785.878 236.444 785.654 235.937 785.404 235.566C785.159 235.188 784.859 234.896 784.503 234.691C783.582 234.159 782.809 234.434 782.183 235.517C781.707 236.342 781.591 237.261 781.836 238.275L780.619 238.171C780.49 237.665 780.478 237.109 780.581 236.5C780.677 235.887 780.881 235.31 781.193 234.768C781.702 233.887 782.294 233.329 782.968 233.093C783.648 232.85 784.364 232.945 785.115 233.379C785.624 233.673 786.049 234.085 786.39 234.616C786.735 235.138 787.03 235.821 787.276 236.664L788.277 240.054L790.573 236.077L791.628 236.686L788.422 242.239Z" fill="#808080"/>
<path d="M824.793 266.703C824.219 267.697 823.405 268.24 822.35 268.332C821.291 268.41 820.055 268.041 818.64 267.224C817.202 266.394 816.264 265.507 815.827 264.566C815.387 263.611 815.453 262.636 816.027 261.642C816.606 260.64 817.417 260.095 818.459 260.007C819.493 259.914 820.726 260.281 822.156 261.107C823.579 261.928 824.518 262.821 824.975 263.785C825.428 264.736 825.367 265.709 824.793 266.703ZM823.751 266.101C824.105 265.487 824.098 264.874 823.729 264.262C823.36 263.65 822.598 263.011 821.442 262.343C820.286 261.676 819.359 261.34 818.661 261.336C817.96 261.319 817.429 261.622 817.07 262.244C816.715 262.858 816.719 263.469 817.079 264.076C817.44 264.683 818.194 265.318 819.342 265.981C820.498 266.648 821.433 266.989 822.147 267.002C822.862 267.016 823.396 266.715 823.751 266.101ZM828.991 259.433C828.426 260.411 827.775 261.054 827.037 261.361C826.304 261.66 825.562 261.592 824.81 261.158C824.285 260.855 823.92 260.461 823.714 259.976C823.506 259.478 823.464 258.964 823.588 258.432C823.185 258.738 822.742 258.908 822.259 258.941C821.768 258.97 821.292 258.852 820.831 258.586C820.12 258.175 819.714 257.591 819.613 256.832C819.512 256.073 819.716 255.253 820.225 254.372C820.738 253.483 821.348 252.893 822.056 252.601C822.763 252.308 823.473 252.368 824.184 252.778C824.645 253.044 824.983 253.401 825.199 253.849C825.419 254.289 825.493 254.757 825.422 255.255C825.825 254.874 826.292 254.653 826.822 254.593C827.345 254.528 827.869 254.647 828.394 254.95C829.146 255.384 829.573 255.998 829.676 256.79C829.784 257.574 829.555 258.455 828.991 259.433ZM824.056 256.584C824.369 256.043 824.486 255.55 824.408 255.106C824.327 254.65 824.064 254.293 823.619 254.037C823.183 253.785 822.751 253.74 822.323 253.902C821.9 254.057 821.532 254.405 821.219 254.946C820.906 255.488 820.789 255.98 820.867 256.424C820.945 256.868 821.202 257.216 821.638 257.468C822.083 257.724 822.521 257.778 822.952 257.628C823.375 257.474 823.743 257.126 824.056 256.584ZM827.996 258.859C828.738 257.574 828.616 256.647 827.63 256.077C826.652 255.513 825.792 255.873 825.05 257.158C824.686 257.789 824.53 258.34 824.581 258.811C824.637 259.274 824.911 259.648 825.404 259.933C826.39 260.502 827.254 260.144 827.996 258.859ZM828.729 253.307L827.734 252.733L829.75 249.241L830.745 249.815L828.729 253.307ZM834.575 249.509L833.641 248.97L832.231 244.357C832.031 243.714 831.806 243.207 831.557 242.836C831.312 242.458 831.012 242.166 830.656 241.961C829.735 241.429 828.961 241.704 828.336 242.787C827.86 243.612 827.744 244.531 827.988 245.545L826.772 245.441C826.643 244.935 826.631 244.378 826.734 243.77C826.829 243.157 827.033 242.579 827.346 242.038C827.855 241.157 828.446 240.599 829.121 240.363C829.801 240.12 830.516 240.215 831.268 240.649C831.777 240.943 832.202 241.355 832.542 241.886C832.887 242.408 833.183 243.091 833.429 243.933L834.43 247.324L836.726 243.347L837.781 243.956L834.575 249.509ZM838.772 242.239L837.838 241.7L836.428 237.087C836.228 236.444 836.004 235.937 835.754 235.566C835.509 235.188 835.209 234.896 834.853 234.691C833.932 234.159 833.159 234.434 832.533 235.517C832.057 236.342 831.941 237.261 832.186 238.275L830.969 238.171C830.84 237.665 830.828 237.109 830.931 236.5C831.027 235.887 831.231 235.31 831.543 234.768C832.052 233.887 832.644 233.329 833.318 233.093C833.998 232.85 834.714 232.945 835.465 233.379C835.974 233.673 836.399 234.085 836.74 234.616C837.085 235.138 837.38 235.821 837.626 236.664L838.627 240.054L840.923 236.077L841.978 236.686L838.772 242.239Z" fill="#808080"/>
<path d="M875.143 266.703C874.569 267.697 873.755 268.24 872.7 268.332C871.641 268.41 870.405 268.041 868.99 267.224C867.552 266.394 866.614 265.507 866.177 264.566C865.737 263.611 865.803 262.636 866.377 261.642C866.956 260.64 867.767 260.095 868.809 260.007C869.843 259.914 871.076 260.281 872.506 261.107C873.929 261.928 874.868 262.821 875.325 263.785C875.778 264.736 875.717 265.709 875.143 266.703ZM874.101 266.101C874.455 265.487 874.448 264.874 874.079 264.262C873.71 263.65 872.948 263.011 871.792 262.343C870.636 261.676 869.709 261.34 869.011 261.336C868.31 261.319 867.779 261.622 867.42 262.244C867.065 262.858 867.069 263.469 867.429 264.076C867.79 264.683 868.544 265.318 869.692 265.981C870.848 266.648 871.783 266.989 872.497 267.002C873.212 267.016 873.746 266.715 874.101 266.101ZM879.341 259.433C878.776 260.411 878.125 261.054 877.387 261.361C876.654 261.66 875.912 261.592 875.16 261.158C874.635 260.855 874.27 260.461 874.064 259.976C873.856 259.478 873.814 258.964 873.938 258.432C873.535 258.738 873.092 258.908 872.609 258.941C872.118 258.97 871.642 258.852 871.181 258.586C870.47 258.175 870.064 257.591 869.963 256.832C869.862 256.073 870.066 255.253 870.575 254.372C871.088 253.483 871.698 252.893 872.406 252.601C873.113 252.308 873.823 252.368 874.534 252.778C874.995 253.044 875.333 253.401 875.549 253.849C875.769 254.289 875.843 254.757 875.772 255.255C876.175 254.874 876.642 254.653 877.172 254.593C877.695 254.528 878.219 254.647 878.744 254.95C879.496 255.384 879.923 255.998 880.026 256.79C880.134 257.574 879.905 258.455 879.341 259.433ZM874.406 256.584C874.719 256.043 874.836 255.55 874.758 255.106C874.677 254.65 874.414 254.293 873.969 254.037C873.533 253.785 873.101 253.74 872.673 253.902C872.25 254.057 871.882 254.405 871.569 254.946C871.256 255.488 871.139 255.98 871.217 256.424C871.295 256.868 871.552 257.216 871.988 257.468C872.433 257.724 872.871 257.778 873.302 257.628C873.725 257.474 874.093 257.126 874.406 256.584ZM878.346 258.859C879.088 257.574 878.966 256.647 877.98 256.077C877.002 255.513 876.142 255.873 875.4 257.158C875.036 257.789 874.88 258.34 874.931 258.811C874.987 259.274 875.261 259.648 875.754 259.933C876.74 260.502 877.604 260.144 878.346 258.859ZM879.079 253.307L878.084 252.733L880.1 249.241L881.095 249.815L879.079 253.307ZM884.925 249.509L883.991 248.97L882.581 244.357C882.381 243.714 882.156 243.207 881.907 242.836C881.662 242.458 881.362 242.166 881.006 241.961C880.085 241.429 879.311 241.704 878.686 242.787C878.21 243.612 878.094 244.531 878.338 245.545L877.122 245.441C876.993 244.935 876.981 244.378 877.084 243.77C877.179 243.157 877.383 242.579 877.696 242.038C878.205 241.157 878.796 240.599 879.471 240.363C880.151 240.12 880.866 240.215 881.618 240.649C882.127 240.943 882.552 241.355 882.892 241.886C883.237 242.408 883.533 243.091 883.779 243.933L884.78 247.324L887.076 243.347L888.131 243.956L884.925 249.509ZM889.122 242.239L888.188 241.7L886.778 237.087C886.578 236.444 886.354 235.937 886.104 235.566C885.859 235.188 885.559 234.896 885.203 234.691C884.282 234.159 883.508 234.434 882.883 235.517C882.407 236.342 882.291 237.261 882.536 238.275L881.319 238.171C881.19 237.665 881.178 237.109 881.281 236.5C881.377 235.887 881.581 235.31 881.893 234.768C882.402 233.887 882.994 233.329 883.668 233.093C884.348 232.85 885.064 232.945 885.815 233.379C886.324 233.673 886.749 234.085 887.09 234.616C887.434 235.138 887.73 235.821 887.976 236.664L888.977 240.054L891.273 236.077L892.328 236.686L889.122 242.239Z" fill="#808080"/>
<path d="M925.493 266.703C924.919 267.697 924.105 268.24 923.05 268.332C921.991 268.41 920.755 268.041 919.34 267.224C917.902 266.394 916.964 265.507 916.527 264.566C916.087 263.611 916.153 262.636 916.727 261.642C917.306 260.64 918.117 260.095 919.159 260.007C920.193 259.914 921.426 260.281 922.856 261.107C924.279 261.928 925.218 262.821 925.675 263.785C926.128 264.736 926.067 265.709 925.493 266.703ZM924.451 266.101C924.805 265.487 924.798 264.874 924.429 264.262C924.06 263.65 923.298 263.011 922.142 262.343C920.986 261.676 920.059 261.34 919.361 261.336C918.66 261.319 918.129 261.622 917.77 262.244C917.415 262.858 917.419 263.469 917.779 264.076C918.14 264.683 918.894 265.318 920.042 265.981C921.198 266.648 922.133 266.989 922.847 267.002C923.562 267.016 924.096 266.715 924.451 266.101ZM929.691 259.433C929.126 260.411 928.475 261.054 927.737 261.361C927.004 261.66 926.262 261.592 925.51 261.158C924.985 260.855 924.619 260.461 924.414 259.976C924.206 259.478 924.164 258.964 924.288 258.432C923.885 258.738 923.442 258.908 922.959 258.941C922.468 258.97 921.992 258.852 921.531 258.586C920.82 258.175 920.414 257.591 920.313 256.832C920.212 256.073 920.416 255.253 920.925 254.372C921.438 253.483 922.048 252.893 922.756 252.601C923.463 252.308 924.173 252.368 924.884 252.778C925.345 253.044 925.683 253.401 925.899 253.849C926.119 254.289 926.193 254.757 926.122 255.255C926.525 254.874 926.992 254.653 927.522 254.593C928.045 254.528 928.569 254.647 929.094 254.95C929.846 255.384 930.273 255.998 930.376 256.79C930.484 257.574 930.255 258.455 929.691 259.433ZM924.756 256.584C925.069 256.043 925.186 255.55 925.108 255.106C925.027 254.65 924.764 254.293 924.319 254.037C923.883 253.785 923.451 253.74 923.023 253.902C922.599 254.057 922.232 254.405 921.919 254.946C921.606 255.488 921.489 255.98 921.567 256.424C921.645 256.868 921.902 257.216 922.338 257.468C922.783 257.724 923.221 257.778 923.652 257.628C924.075 257.474 924.443 257.126 924.756 256.584ZM928.696 258.859C929.438 257.574 929.316 256.647 928.33 256.077C927.352 255.513 926.492 255.873 925.75 257.158C925.386 257.789 925.23 258.34 925.281 258.811C925.337 259.274 925.611 259.648 926.104 259.933C927.09 260.502 927.954 260.144 928.696 258.859ZM929.429 253.307L928.434 252.733L930.45 249.241L931.445 249.815L929.429 253.307ZM935.275 249.509L934.341 248.97L932.931 244.357C932.731 243.714 932.506 243.207 932.257 242.836C932.012 242.458 931.712 242.166 931.356 241.961C930.435 241.429 929.661 241.704 929.036 242.787C928.56 243.612 928.444 244.531 928.688 245.545L927.472 245.441C927.343 244.935 927.33 244.378 927.434 243.77C927.529 243.157 927.733 242.579 928.046 242.038C928.555 241.157 929.146 240.599 929.821 240.363C930.501 240.12 931.216 240.215 931.968 240.649C932.477 240.943 932.902 241.355 933.242 241.886C933.587 242.408 933.883 243.091 934.129 243.933L935.13 247.324L937.426 243.347L938.481 243.956L935.275 249.509ZM939.472 242.239L938.538 241.7L937.128 237.087C936.928 236.444 936.704 235.937 936.454 235.566C936.209 235.188 935.909 234.896 935.553 234.691C934.632 234.159 933.858 234.434 933.233 235.517C932.757 236.342 932.641 237.261 932.886 238.275L931.669 238.171C931.54 237.665 931.528 237.109 931.631 236.5C931.727 235.887 931.931 235.31 932.243 234.768C932.752 233.887 933.344 233.329 934.018 233.093C934.698 232.85 935.413 232.945 936.165 233.379C936.674 233.673 937.099 234.085 937.439 234.616C937.784 235.138 938.08 235.821 938.326 236.664L939.327 240.054L941.623 236.077L942.678 236.686L939.472 242.239Z" fill="#808080"/>
<path d="M975.843 266.703C975.269 267.697 974.455 268.24 973.4 268.332C972.341 268.41 971.105 268.041 969.69 267.224C968.252 266.394 967.314 265.507 966.877 264.566C966.437 263.611 966.503 262.636 967.077 261.642C967.656 260.64 968.467 260.095 969.509 260.007C970.543 259.914 971.775 260.281 973.206 261.107C974.629 261.928 975.568 262.821 976.025 263.785C976.478 264.736 976.417 265.709 975.843 266.703ZM974.801 266.101C975.155 265.487 975.148 264.874 974.779 264.262C974.41 263.65 973.648 263.011 972.492 262.343C971.336 261.676 970.409 261.34 969.711 261.336C969.01 261.319 968.479 261.622 968.12 262.244C967.765 262.858 967.768 263.469 968.129 264.076C968.49 264.683 969.244 265.318 970.392 265.981C971.548 266.648 972.483 266.989 973.197 267.002C973.911 267.016 974.446 266.715 974.801 266.101ZM980.041 259.433C979.476 260.411 978.825 261.054 978.087 261.361C977.354 261.66 976.612 261.592 975.86 261.158C975.335 260.855 974.969 260.461 974.764 259.976C974.556 259.478 974.514 258.964 974.638 258.432C974.234 258.738 973.791 258.908 973.309 258.941C972.818 258.97 972.342 258.852 971.881 258.586C971.17 258.175 970.764 257.591 970.663 256.832C970.562 256.073 970.766 255.253 971.275 254.372C971.788 253.483 972.398 252.893 973.106 252.601C973.813 252.308 974.523 252.368 975.234 252.778C975.695 253.044 976.033 253.401 976.249 253.849C976.469 254.289 976.543 254.757 976.472 255.255C976.875 254.874 977.342 254.653 977.872 254.593C978.395 254.528 978.919 254.647 979.444 254.95C980.196 255.384 980.623 255.998 980.726 256.79C980.834 257.574 980.605 258.455 980.041 259.433ZM975.106 256.584C975.419 256.043 975.536 255.55 975.458 255.106C975.377 254.65 975.114 254.293 974.669 254.037C974.233 253.785 973.801 253.74 973.373 253.902C972.949 254.057 972.582 254.405 972.269 254.946C971.956 255.488 971.839 255.98 971.917 256.424C971.995 256.868 972.252 257.216 972.688 257.468C973.133 257.724 973.571 257.778 974.002 257.628C974.425 257.474 974.793 257.126 975.106 256.584ZM979.046 258.859C979.788 257.574 979.666 256.647 978.68 256.077C977.702 255.513 976.842 255.873 976.1 257.158C975.736 257.789 975.58 258.34 975.631 258.811C975.687 259.274 975.961 259.648 976.454 259.933C977.44 260.502 978.304 260.144 979.046 258.859ZM979.779 253.307L978.784 252.733L980.8 249.241L981.795 249.815L979.779 253.307ZM985.625 249.509L984.691 248.97L983.281 244.357C983.081 243.714 982.856 243.207 982.607 242.836C982.362 242.458 982.062 242.166 981.706 241.961C980.785 241.429 980.011 241.704 979.386 242.787C978.91 243.612 978.794 244.531 979.038 245.545L977.822 245.441C977.693 244.935 977.68 244.378 977.784 243.77C977.879 243.157 978.083 242.579 978.396 242.038C978.905 241.157 979.496 240.599 980.171 240.363C980.851 240.12 981.566 240.215 982.318 240.649C982.827 240.943 983.252 241.355 983.592 241.886C983.937 242.408 984.233 243.091 984.479 243.933L985.48 247.324L987.776 243.347L988.831 243.956L985.625 249.509ZM989.822 242.239L988.888 241.7L987.478 237.087C987.278 236.444 987.054 235.937 986.804 235.566C986.559 235.188 986.259 234.896 985.903 234.691C984.982 234.159 984.208 234.434 983.583 235.517C983.107 236.342 982.991 237.261 983.236 238.275L982.019 238.171C981.89 237.665 981.878 237.109 981.981 236.5C982.076 235.887 982.28 235.31 982.593 234.768C983.102 233.887 983.694 233.329 984.368 233.093C985.048 232.85 985.763 232.945 986.515 233.379C987.024 233.673 987.449 234.085 987.789 234.616C988.134 235.138 988.43 235.821 988.676 236.664L989.677 240.054L991.973 236.077L993.028 236.686L989.822 242.239Z" fill="#808080"/>
<path d="M1026.19 266.703C1025.62 267.697 1024.8 268.24 1023.75 268.332C1022.69 268.41 1021.45 268.041 1020.04 267.224C1018.6 266.394 1017.66 265.507 1017.23 264.566C1016.79 263.611 1016.85 262.636 1017.43 261.642C1018.01 260.64 1018.82 260.095 1019.86 260.007C1020.89 259.914 1022.13 260.281 1023.56 261.107C1024.98 261.928 1025.92 262.821 1026.37 263.785C1026.83 264.736 1026.77 265.709 1026.19 266.703ZM1025.15 266.101C1025.51 265.487 1025.5 264.874 1025.13 264.262C1024.76 263.65 1024 263.011 1022.84 262.343C1021.69 261.676 1020.76 261.34 1020.06 261.336C1019.36 261.319 1018.83 261.622 1018.47 262.244C1018.12 262.858 1018.12 263.469 1018.48 264.076C1018.84 264.683 1019.59 265.318 1020.74 265.981C1021.9 266.648 1022.83 266.989 1023.55 267.002C1024.26 267.016 1024.8 266.715 1025.15 266.101ZM1030.39 259.433C1029.83 260.411 1029.17 261.054 1028.44 261.361C1027.7 261.66 1026.96 261.592 1026.21 261.158C1025.68 260.855 1025.32 260.461 1025.11 259.976C1024.91 259.478 1024.86 258.964 1024.99 258.432C1024.58 258.738 1024.14 258.908 1023.66 258.941C1023.17 258.97 1022.69 258.852 1022.23 258.586C1021.52 258.175 1021.11 257.591 1021.01 256.832C1020.91 256.073 1021.12 255.253 1021.62 254.372C1022.14 253.483 1022.75 252.893 1023.46 252.601C1024.16 252.308 1024.87 252.368 1025.58 252.778C1026.04 253.044 1026.38 253.401 1026.6 253.849C1026.82 254.289 1026.89 254.757 1026.82 255.255C1027.22 254.874 1027.69 254.653 1028.22 254.593C1028.74 254.528 1029.27 254.647 1029.79 254.95C1030.55 255.384 1030.97 255.998 1031.08 256.79C1031.18 257.574 1030.96 258.455 1030.39 259.433ZM1025.46 256.584C1025.77 256.043 1025.89 255.55 1025.81 255.106C1025.73 254.65 1025.46 254.293 1025.02 254.037C1024.58 253.785 1024.15 253.74 1023.72 253.902C1023.3 254.057 1022.93 254.405 1022.62 254.946C1022.31 255.488 1022.19 255.98 1022.27 256.424C1022.34 256.868 1022.6 257.216 1023.04 257.468C1023.48 257.724 1023.92 257.778 1024.35 257.628C1024.78 257.474 1025.14 257.126 1025.46 256.584ZM1029.4 258.859C1030.14 257.574 1030.02 256.647 1029.03 256.077C1028.05 255.513 1027.19 255.873 1026.45 257.158C1026.09 257.789 1025.93 258.34 1025.98 258.811C1026.04 259.274 1026.31 259.648 1026.8 259.933C1027.79 260.502 1028.65 260.144 1029.4 258.859ZM1030.13 253.307L1029.13 252.733L1031.15 249.241L1032.14 249.815L1030.13 253.307ZM1035.97 249.509L1035.04 248.97L1033.63 244.357C1033.43 243.714 1033.21 243.207 1032.96 242.836C1032.71 242.458 1032.41 242.166 1032.06 241.961C1031.13 241.429 1030.36 241.704 1029.74 242.787C1029.26 243.612 1029.14 244.531 1029.39 245.545L1028.17 245.441C1028.04 244.935 1028.03 244.378 1028.13 243.77C1028.23 243.157 1028.43 242.579 1028.75 242.038C1029.25 241.157 1029.85 240.599 1030.52 240.363C1031.2 240.12 1031.92 240.215 1032.67 240.649C1033.18 240.943 1033.6 241.355 1033.94 241.886C1034.29 242.408 1034.58 243.091 1034.83 243.933L1035.83 247.324L1038.13 243.347L1039.18 243.956L1035.97 249.509ZM1040.17 242.239L1039.24 241.7L1037.83 237.087C1037.63 236.444 1037.4 235.937 1037.15 235.566C1036.91 235.188 1036.61 234.896 1036.25 234.691C1035.33 234.159 1034.56 234.434 1033.93 235.517C1033.46 236.342 1033.34 237.261 1033.59 238.275L1032.37 238.171C1032.24 237.665 1032.23 237.109 1032.33 236.5C1032.43 235.887 1032.63 235.31 1032.94 234.768C1033.45 233.887 1034.04 233.329 1034.72 233.093C1035.4 232.85 1036.11 232.945 1036.87 233.379C1037.37 233.673 1037.8 234.085 1038.14 234.616C1038.48 235.138 1038.78 235.821 1039.03 236.664L1040.03 240.054L1042.32 236.077L1043.38 236.686L1040.17 242.239Z" fill="#808080"/>
<path d="M2.05988 14.5V13.282H4.29988V6.31L2.54988 7.402L1.96188 6.324L4.71988 4.63H5.74188V13.282H7.84188V14.5H2.05988ZM10.0064 14.5V13.422L13.2964 9.894C13.7537 9.39933 14.0804 8.95133 14.2764 8.55C14.4817 8.14867 14.5844 7.74267 14.5844 7.332C14.5844 6.268 13.9591 5.736 12.7084 5.736C11.7564 5.736 10.9024 6.09533 10.1464 6.814L9.62841 5.708C10.0017 5.344 10.4777 5.05467 11.0564 4.84C11.6351 4.616 12.2371 4.504 12.8624 4.504C13.8797 4.504 14.6591 4.73733 15.2004 5.204C15.7511 5.67067 16.0264 6.338 16.0264 7.206C16.0264 7.794 15.8817 8.368 15.5924 8.928C15.3124 9.488 14.8691 10.0853 14.2624 10.72L11.8264 13.282H16.4184V14.5H10.0064ZM21.4109 14.626C20.2629 14.626 19.3856 14.192 18.7789 13.324C18.1816 12.4467 17.8829 11.1913 17.8829 9.558C17.8829 7.89667 18.1816 6.64133 18.7789 5.792C19.3856 4.93333 20.2629 4.504 21.4109 4.504C22.5683 4.504 23.4456 4.93333 24.0429 5.792C24.6403 6.64133 24.9389 7.892 24.9389 9.544C24.9389 11.1867 24.6356 12.4467 24.0289 13.324C23.4316 14.192 22.5589 14.626 21.4109 14.626ZM21.4109 13.422C22.1203 13.422 22.6476 13.1093 22.9929 12.484C23.3383 11.8587 23.5109 10.8787 23.5109 9.544C23.5109 8.20933 23.3383 7.23867 22.9929 6.632C22.6569 6.016 22.1296 5.708 21.4109 5.708C20.7016 5.708 20.1743 6.016 19.8289 6.632C19.4836 7.248 19.3109 8.21867 19.3109 9.544C19.3109 10.8787 19.4836 11.8587 19.8289 12.484C20.1743 13.1093 20.7016 13.422 21.4109 13.422ZM29.8055 14.626C28.6575 14.626 27.7801 14.192 27.1735 13.324C26.5761 12.4467 26.2775 11.1913 26.2775 9.558C26.2775 7.89667 26.5761 6.64133 27.1735 5.792C27.7801 4.93333 28.6575 4.504 29.8055 4.504C30.9628 4.504 31.8401 4.93333 32.4375 5.792C33.0348 6.64133 33.3335 7.892 33.3335 9.544C33.3335 11.1867 33.0301 12.4467 32.4235 13.324C31.8261 14.192 30.9535 14.626 29.8055 14.626ZM29.8055 13.422C30.5148 13.422 31.0421 13.1093 31.3875 12.484C31.7328 11.8587 31.9055 10.8787 31.9055 9.544C31.9055 8.20933 31.7328 7.23867 31.3875 6.632C31.0515 6.016 30.5241 5.708 29.8055 5.708C29.0961 5.708 28.5688 6.016 28.2235 6.632C27.8781 7.248 27.7055 8.21867 27.7055 9.544C27.7055 10.8787 27.8781 11.8587 28.2235 12.484C28.5688 13.1093 29.0961 13.422 29.8055 13.422Z" fill="#808080"/>
<path d="M49 10H1050" stroke="#CED0D5" stroke-width="2" stroke-dasharray="4 6"/>
<path d="M12.3024 64.626C11.7891 64.626 11.2757 64.5233 10.7624 64.318C10.2584 64.1127 9.82907 63.8327 9.47441 63.478L9.97841 62.372C10.3237 62.708 10.6971 62.9647 11.0984 63.142C11.4997 63.31 11.9057 63.394 12.3164 63.394C13.1937 63.394 13.8611 63.0813 14.3184 62.456C14.7851 61.8213 15.0184 60.8787 15.0184 59.628V59.054C14.8317 59.6233 14.5051 60.0713 14.0384 60.398C13.5811 60.7247 13.0444 60.888 12.4284 60.888C11.8591 60.888 11.3504 60.7527 10.9024 60.482C10.4544 60.2113 10.1044 59.8427 9.85241 59.376C9.60041 58.9 9.47441 58.3587 9.47441 57.752C9.47441 57.1173 9.60974 56.5573 9.88041 56.072C10.1511 55.5773 10.5244 55.1947 11.0004 54.924C11.4857 54.644 12.0411 54.504 12.6664 54.504C13.8611 54.504 14.7804 54.9287 15.4244 55.778C16.0777 56.6273 16.4044 57.8173 16.4044 59.348C16.4044 61.0373 16.0404 62.3393 15.3124 63.254C14.5937 64.1687 13.5904 64.626 12.3024 64.626ZM12.7644 59.698C13.3337 59.698 13.7957 59.516 14.1504 59.152C14.5051 58.7787 14.6824 58.2933 14.6824 57.696C14.6824 57.0987 14.5051 56.6133 14.1504 56.24C13.7957 55.8573 13.3337 55.666 12.7644 55.666C12.1951 55.666 11.7331 55.8573 11.3784 56.24C11.0237 56.6133 10.8464 57.0987 10.8464 57.696C10.8464 58.2933 11.0237 58.7787 11.3784 59.152C11.7331 59.516 12.1951 59.698 12.7644 59.698ZM21.4109 64.626C20.2629 64.626 19.3856 64.192 18.7789 63.324C18.1816 62.4467 17.8829 61.1913 17.8829 59.558C17.8829 57.8967 18.1816 56.6413 18.7789 55.792C19.3856 54.9333 20.2629 54.504 21.4109 54.504C22.5683 54.504 23.4456 54.9333 24.0429 55.792C24.6403 56.6413 24.9389 57.892 24.9389 59.544C24.9389 61.1867 24.6356 62.4467 24.0289 63.324C23.4316 64.192 22.5589 64.626 21.4109 64.626ZM21.4109 63.422C22.1203 63.422 22.6476 63.1093 22.9929 62.484C23.3383 61.8587 23.5109 60.8787 23.5109 59.544C23.5109 58.2093 23.3383 57.2387 22.9929 56.632C22.6569 56.016 22.1296 55.708 21.4109 55.708C20.7016 55.708 20.1743 56.016 19.8289 56.632C19.4836 57.248 19.3109 58.2187 19.3109 59.544C19.3109 60.8787 19.4836 61.8587 19.8289 62.484C20.1743 63.1093 20.7016 63.422 21.4109 63.422ZM29.8055 64.626C28.6575 64.626 27.7801 64.192 27.1735 63.324C26.5761 62.4467 26.2775 61.1913 26.2775 59.558C26.2775 57.8967 26.5761 56.6413 27.1735 55.792C27.7801 54.9333 28.6575 54.504 29.8055 54.504C30.9628 54.504 31.8401 54.9333 32.4375 55.792C33.0348 56.6413 33.3335 57.892 33.3335 59.544C33.3335 61.1867 33.0301 62.4467 32.4235 63.324C31.8261 64.192 30.9535 64.626 29.8055 64.626ZM29.8055 63.422C30.5148 63.422 31.0421 63.1093 31.3875 62.484C31.7328 61.8587 31.9055 60.8787 31.9055 59.544C31.9055 58.2093 31.7328 57.2387 31.3875 56.632C31.0515 56.016 30.5241 55.708 29.8055 55.708C29.0961 55.708 28.5688 56.016 28.2235 56.632C27.8781 57.248 27.7055 58.2187 27.7055 59.544C27.7055 60.8787 27.8781 61.8587 28.2235 62.484C28.5688 63.1093 29.0961 63.422 29.8055 63.422Z" fill="#808080"/>
<path d="M49 60H1050" stroke="#CED0D5" stroke-width="2" stroke-dasharray="4 6"/>
<path d="M13.3664 114.626C12.1717 114.626 11.2477 114.201 10.5944 113.352C9.95041 112.503 9.62841 111.313 9.62841 109.782C9.62841 108.093 9.99241 106.791 10.7204 105.876C11.4484 104.961 12.4564 104.504 13.7444 104.504C14.2484 104.504 14.7571 104.607 15.2704 104.812C15.7837 105.008 16.2131 105.288 16.5584 105.652L16.0544 106.744C15.7184 106.408 15.3451 106.156 14.9344 105.988C14.5331 105.82 14.1271 105.736 13.7164 105.736C12.8484 105.736 12.1811 106.053 11.7144 106.688C11.2571 107.313 11.0284 108.251 11.0284 109.502V110.062C11.2151 109.493 11.5371 109.049 11.9944 108.732C12.4611 108.405 12.9977 108.242 13.6044 108.242C14.1831 108.242 14.6917 108.377 15.1304 108.648C15.5784 108.919 15.9284 109.292 16.1804 109.768C16.4324 110.235 16.5584 110.771 16.5584 111.378C16.5584 112.013 16.4231 112.577 16.1524 113.072C15.8817 113.557 15.5037 113.94 15.0184 114.22C14.5424 114.491 13.9917 114.626 13.3664 114.626ZM13.2824 113.45C13.8517 113.45 14.3137 113.263 14.6684 112.89C15.0231 112.517 15.2004 112.031 15.2004 111.434C15.2004 110.837 15.0231 110.351 14.6684 109.978C14.3137 109.605 13.8517 109.418 13.2824 109.418C12.7131 109.418 12.2511 109.605 11.8964 109.978C11.5417 110.351 11.3644 110.837 11.3644 111.434C11.3644 112.031 11.5417 112.517 11.8964 112.89C12.2511 113.263 12.7131 113.45 13.2824 113.45ZM21.4109 114.626C20.2629 114.626 19.3856 114.192 18.7789 113.324C18.1816 112.447 17.8829 111.191 17.8829 109.558C17.8829 107.897 18.1816 106.641 18.7789 105.792C19.3856 104.933 20.2629 104.504 21.4109 104.504C22.5683 104.504 23.4456 104.933 24.0429 105.792C24.6403 106.641 24.9389 107.892 24.9389 109.544C24.9389 111.187 24.6356 112.447 24.0289 113.324C23.4316 114.192 22.5589 114.626 21.4109 114.626ZM21.4109 113.422C22.1203 113.422 22.6476 113.109 22.9929 112.484C23.3383 111.859 23.5109 110.879 23.5109 109.544C23.5109 108.209 23.3383 107.239 22.9929 106.632C22.6569 106.016 22.1296 105.708 21.4109 105.708C20.7016 105.708 20.1743 106.016 19.8289 106.632C19.4836 107.248 19.3109 108.219 19.3109 109.544C19.3109 110.879 19.4836 111.859 19.8289 112.484C20.1743 113.109 20.7016 113.422 21.4109 113.422ZM29.8055 114.626C28.6575 114.626 27.7801 114.192 27.1735 113.324C26.5761 112.447 26.2775 111.191 26.2775 109.558C26.2775 107.897 26.5761 106.641 27.1735 105.792C27.7801 104.933 28.6575 104.504 29.8055 104.504C30.9628 104.504 31.8401 104.933 32.4375 105.792C33.0348 106.641 33.3335 107.892 33.3335 109.544C33.3335 111.187 33.0301 112.447 32.4235 113.324C31.8261 114.192 30.9535 114.626 29.8055 114.626ZM29.8055 113.422C30.5148 113.422 31.0421 113.109 31.3875 112.484C31.7328 111.859 31.9055 110.879 31.9055 109.544C31.9055 108.209 31.7328 107.239 31.3875 106.632C31.0515 106.016 30.5241 105.708 29.8055 105.708C29.0961 105.708 28.5688 106.016 28.2235 106.632C27.8781 107.248 27.7055 108.219 27.7055 109.544C27.7055 110.879 27.8781 111.859 28.2235 112.484C28.5688 113.109 29.0961 113.422 29.8055 113.422Z" fill="#808080"/>
<path d="M49 110H1050" stroke="#CED0D5" stroke-width="2" stroke-dasharray="4 6"/>
<path d="M12.8624 164.626C12.1997 164.626 11.5697 164.528 10.9724 164.332C10.3751 164.127 9.87574 163.842 9.47441 163.478L9.97841 162.358C10.4171 162.713 10.8697 162.974 11.3364 163.142C11.8031 163.31 12.2977 163.394 12.8204 163.394C13.4924 163.394 14.0011 163.249 14.3464 162.96C14.7011 162.671 14.8784 162.255 14.8784 161.714C14.8784 161.173 14.7011 160.771 14.3464 160.51C14.0011 160.249 13.4971 160.118 12.8344 160.118H11.3084V158.9H12.6944C13.2824 158.9 13.7444 158.751 14.0804 158.452C14.4257 158.153 14.5984 157.743 14.5984 157.22C14.5984 156.744 14.4397 156.38 14.1224 156.128C13.8051 155.867 13.3524 155.736 12.7644 155.736C11.7657 155.736 10.8931 156.095 10.1464 156.814L9.64241 155.708C10.0251 155.325 10.5011 155.031 11.0704 154.826C11.6491 154.611 12.2511 154.504 12.8764 154.504C13.8657 154.504 14.6357 154.733 15.1864 155.19C15.7371 155.638 16.0124 156.263 16.0124 157.066C16.0124 157.607 15.8724 158.083 15.5924 158.494C15.3217 158.905 14.9437 159.203 14.4584 159.39C15.0464 159.539 15.4991 159.829 15.8164 160.258C16.1337 160.678 16.2924 161.196 16.2924 161.812C16.2924 162.68 15.9844 163.366 15.3684 163.87C14.7617 164.374 13.9264 164.626 12.8624 164.626ZM21.4109 164.626C20.2629 164.626 19.3856 164.192 18.7789 163.324C18.1816 162.447 17.8829 161.191 17.8829 159.558C17.8829 157.897 18.1816 156.641 18.7789 155.792C19.3856 154.933 20.2629 154.504 21.4109 154.504C22.5683 154.504 23.4456 154.933 24.0429 155.792C24.6403 156.641 24.9389 157.892 24.9389 159.544C24.9389 161.187 24.6356 162.447 24.0289 163.324C23.4316 164.192 22.5589 164.626 21.4109 164.626ZM21.4109 163.422C22.1203 163.422 22.6476 163.109 22.9929 162.484C23.3383 161.859 23.5109 160.879 23.5109 159.544C23.5109 158.209 23.3383 157.239 22.9929 156.632C22.6569 156.016 22.1296 155.708 21.4109 155.708C20.7016 155.708 20.1743 156.016 19.8289 156.632C19.4836 157.248 19.3109 158.219 19.3109 159.544C19.3109 160.879 19.4836 161.859 19.8289 162.484C20.1743 163.109 20.7016 163.422 21.4109 163.422ZM29.8055 164.626C28.6575 164.626 27.7801 164.192 27.1735 163.324C26.5761 162.447 26.2775 161.191 26.2775 159.558C26.2775 157.897 26.5761 156.641 27.1735 155.792C27.7801 154.933 28.6575 154.504 29.8055 154.504C30.9628 154.504 31.8401 154.933 32.4375 155.792C33.0348 156.641 33.3335 157.892 33.3335 159.544C33.3335 161.187 33.0301 162.447 32.4235 163.324C31.8261 164.192 30.9535 164.626 29.8055 164.626ZM29.8055 163.422C30.5148 163.422 31.0421 163.109 31.3875 162.484C31.7328 161.859 31.9055 160.879 31.9055 159.544C31.9055 158.209 31.7328 157.239 31.3875 156.632C31.0515 156.016 30.5241 155.708 29.8055 155.708C29.0961 155.708 28.5688 156.016 28.2235 156.632C27.8781 157.248 27.7055 158.219 27.7055 159.544C27.7055 160.879 27.8781 161.859 28.2235 162.484C28.5688 163.109 29.0961 163.422 29.8055 163.422Z" fill="#808080"/>
<path d="M49 160H1050" stroke="#CED0D5" stroke-width="2" stroke-dasharray="4 6"/>
<path d="M29.8055 214.626C28.6575 214.626 27.7801 214.192 27.1735 213.324C26.5761 212.447 26.2775 211.191 26.2775 209.558C26.2775 207.897 26.5761 206.641 27.1735 205.792C27.7801 204.933 28.6575 204.504 29.8055 204.504C30.9628 204.504 31.8401 204.933 32.4375 205.792C33.0348 206.641 33.3335 207.892 33.3335 209.544C33.3335 211.187 33.0301 212.447 32.4235 213.324C31.8261 214.192 30.9535 214.626 29.8055 214.626ZM29.8055 213.422C30.5148 213.422 31.0421 213.109 31.3875 212.484C31.7328 211.859 31.9055 210.879 31.9055 209.544C31.9055 208.209 31.7328 207.239 31.3875 206.632C31.0515 206.016 30.5241 205.708 29.8055 205.708C29.0961 205.708 28.5688 206.016 28.2235 206.632C27.8781 207.248 27.7055 208.219 27.7055 209.544C27.7055 210.879 27.8781 211.859 28.2235 212.484C28.5688 213.109 29.0961 213.422 29.8055 213.422Z" fill="#808080"/>
<path d="M49 210H1050" stroke="#CED0D5" stroke-width="2"/>
<path d="M49 182.785C49 182.785 90.4325 208 107 208C123.568 208 140.877 208 163 208C185.123 208 207.708 209.503 220 208C232.292 206.497 246.649 172.018 271.86 172.265C295.946 172.501 308.266 204.982 333 208C355 208 388.745 207.954 416 208C448.231 208.055 495 208 526 208C595.222 197.386 559.389 40.7932 604.28 38.0086C627.261 36.5831 637.225 212.362 662 208C688.722 203.296 693.531 168.386 717.046 169.252C740.561 170.118 745.484 205.632 772 208C796.916 210.225 804.625 182.548 829.278 183.286C852.787 183.99 859.488 208.614 883 208C909.099 207.318 912.195 175.048 938.303 175.263C964.061 175.476 982.351 219.097 1003.5 205.319C1035.04 184.781 1050 155.226 1050 155.226" stroke="#E64848" stroke-width="2" stroke-linecap="round" stroke-linejoin="round"/>
</svg>
