<svg width="30" height="30" viewBox="0 0 30 30" fill="none" xmlns="http://www.w3.org/2000/svg">
<path fill-rule="evenodd" clip-rule="evenodd" d="M15 2.5C8.09625 2.5 2.5 8.09644 2.5 15C2.5 21.9036 8.09644 27.5 15 27.5C21.9036 27.5 27.5 21.9036 27.5 15C27.5 8.09644 21.9036 2.5 15 2.5ZM0 15C0 6.71562 6.71562 0 15 0C23.2844 0 30 6.71562 30 15C30 23.2844 23.2844 30 15 30C6.71562 30 0 23.2844 0 15Z" fill="#CED0D5"/>
<path fill-rule="evenodd" clip-rule="evenodd" d="M15 6.25C15.6904 6.25 16.25 6.80957 16.25 7.5V14.4819L20.2588 18.4909C20.7471 18.979 20.7471 19.7705 20.2588 20.2585C19.7708 20.7468 18.9792 20.7468 18.4913 20.2585L14.1163 15.8835C13.8819 15.6491 13.75 15.3313 13.75 14.9997V7.49969C13.75 6.80925 14.3096 6.24969 15 6.24969L15 6.25Z" fill="#CED0D5"/>
</svg>
